Upgrade_CJK_Try-Thin.ufo
<glyph name="exclam" format="2">
  <advance height="1000" width="176"/>
  <unicode hex="0021"/>
  <outline>
    <contour>
      <point x="80" y="150" type="line"/>
      <point x="96" y="150" type="line"/>
      <point x="96" y="740" type="line"/>
      <point x="80" y="740" type="line"/>
    </contour>
    <contour>
      <point x="72" y="0" type="line"/>
      <point x="104" y="0" type="line"/>
      <point x="104" y="32" type="line"/>
      <point x="72" y="32" type="line"/>
    </contour>
  </outline>
</glyph>
<glyph name="quotedbl" format="2">
  <advance height="1000" width="227"/>
  <unicode hex="0022"/>
  <outline>
    <contour>
      <point x="64" y="560" type="line"/>
      <point x="80" y="560" type="line"/>
      <point x="80" y="744" type="line"/>
      <point x="64" y="744" type="line"/>
    </contour>
    <contour>
      <point x="147" y="560" type="line"/>
      <point x="163" y="560" type="line"/>
      <point x="163" y="744" type="line"/>
      <point x="147" y="744" type="line"/>
    </contour>
  </outline>
</glyph>
<glyph name="dollar" format="2">
  <advance height="1000" width="549"/>
  <unicode hex="0024"/>
  <outline>
    <contour>
      <point x="272" y="388" type="line"/>
      <point x="287" y="388" type="line"/>
      <point x="287" y="828" type="line"/>
      <point x="272" y="828" type="line"/>
    </contour>
    <contour>
      <point x="272" y="-90" type="line"/>
      <point x="287" y="-90" type="line"/>
      <point x="287" y="386" type="line"/>
      <point x="272" y="386" type="line"/>
    </contour>
    <contour>
      <point x="277" y="-8" type="curve" smooth="yes"/>
      <point x="397" y="-8"/>
      <point x="481" y="71"/>
      <point x="481" y="185" type="curve" smooth="yes"/>
      <point x="481" y="287"/>
      <point x="430" y="345"/>
      <point x="288" y="392" type="curve" smooth="yes"/>
      <point x="270" y="398" type="line" smooth="yes"/>
      <point x="151" y="438"/>
      <point x="104" y="487"/>
      <point x="104" y="575" type="curve" smooth="yes"/>
      <point x="104" y="671"/>
      <point x="177" y="733"/>
      <point x="287" y="733" type="curve" smooth="yes"/>
      <point x="346" y="733"/>
      <point x="404" y="712"/>
      <point x="471" y="675" type="curve"/>
      <point x="471" y="693" type="line"/>
      <point x="409" y="724"/>
      <point x="348" y="748"/>
      <point x="287" y="748" type="curve" smooth="yes"/>
      <point x="166" y="748"/>
      <point x="88" y="680"/>
      <point x="88" y="575" type="curve" smooth="yes"/>
      <point x="88" y="480"/>
      <point x="134" y="426"/>
      <point x="266" y="382" type="curve" smooth="yes"/>
      <point x="284" y="376" type="line" smooth="yes"/>
      <point x="413" y="333"/>
      <point x="465" y="280"/>
      <point x="465" y="185" type="curve" smooth="yes"/>
      <point x="465" y="79"/>
      <point x="388" y="8"/>
      <point x="277" y="8" type="curve" smooth="yes"/>
      <point x="204" y="8"/>
      <point x="131" y="36"/>
      <point x="68" y="80" type="curve"/>
      <point x="68" y="59" type="line"/>
      <point x="128" y="21"/>
      <point x="202" y="-8"/>
    </contour>
  </outline>
</glyph>
<glyph name="ampersand" format="2">
  <advance height="1000" width="642"/>
  <unicode hex="0026"/>
  <outline>
    <contour>
      <point x="282.0" y="-8.0" type="curve" smooth="yes"/>
      <point x="362.0" y="-8.0"/>
      <point x="443.0" y="29.0"/>
      <point x="491.0" y="90.0" type="curve"/>
      <point x="571.0" y="1.0" type="line"/>
      <point x="594.0" y="1.0" type="line"/>
      <point x="502.0" y="103.0" type="line"/>
      <point x="547.0" y="162.0"/>
      <point x="565.0" y="243.0"/>
      <point x="565.0" y="393.0" type="curve"/>
      <point x="550.0" y="393.0" type="line"/>
      <point x="550.0" y="253.0"/>
      <point x="533.0" y="174.0"/>
      <point x="492.0" y="116.0" type="curve"/>
      <point x="207.0" y="435.0" type="line" smooth="yes"/>
      <point x="168.0" y="479.0"/>
      <point x="145.0" y="521.0"/>
      <point x="145.0" y="575.0" type="curve" smooth="yes"/>
      <point x="145.0" y="664.0"/>
      <point x="212.0" y="734.0"/>
      <point x="312.0" y="734.0" type="curve" smooth="yes"/>
      <point x="377.0" y="734.0"/>
      <point x="438.0" y="701.0"/>
      <point x="492.0" y="639.0" type="curve"/>
      <point x="492.0" y="663.0" type="line"/>
      <point x="448.0" y="714.0"/>
      <point x="383.0" y="750.0"/>
      <point x="312.0" y="750.0" type="curve" smooth="yes"/>
      <point x="201.0" y="750.0"/>
      <point x="128.0" y="671.0"/>
      <point x="128.0" y="575.0" type="curve" smooth="yes"/>
      <point x="128.0" y="520.0"/>
      <point x="151.0" y="473.0"/>
      <point x="199.0" y="419.0" type="curve"/>
      <point x="109.0" y="380.0"/>
      <point x="48.0" y="302.0"/>
      <point x="48.0" y="207.0" type="curve" smooth="yes"/>
      <point x="48.0" y="78.0"/>
      <point x="140.0" y="-8.0"/>
    </contour>
    <contour>
      <point x="65.0" y="207.0" type="curve" smooth="yes"/>
      <point x="65.0" y="288.0"/>
      <point x="115.0" y="364.0"/>
      <point x="209.0" y="407.0" type="curve"/>
      <point x="481.0" y="101.0" type="line"/>
      <point x="436.0" y="44.0"/>
      <point x="358.0" y="8.0"/>
      <point x="282.0" y="8.0" type="curve" smooth="yes"/>
      <point x="151.0" y="8.0"/>
      <point x="65.0" y="87.0"/>
    </contour>
  </outline>
</glyph>
<glyph name="quotesingle" format="2">
  <advance height="1000" width="144"/>
  <unicode hex="0027"/>
  <outline>
    <contour>
      <point x="64" y="560" type="line"/>
      <point x="80" y="560" type="line"/>
      <point x="80" y="744" type="line"/>
      <point x="64" y="744" type="line"/>
    </contour>
  </outline>
</glyph>
<glyph name="parenleft" format="2">
  <advance height="1000" width="314"/>
  <unicode hex="0028"/>
  <outline>
    <contour>
      <point x="262" y="-196" type="curve"/>
      <point x="282" y="-196" type="line"/>
      <point x="155" y="-56"/>
      <point x="88" y="102"/>
      <point x="88" y="272" type="curve" smooth="yes"/>
      <point x="88" y="440"/>
      <point x="154" y="601"/>
      <point x="281" y="741" type="curve"/>
      <point x="262" y="741" type="line"/>
      <point x="136" y="601"/>
      <point x="72" y="441"/>
      <point x="72" y="272" type="curve" smooth="yes"/>
      <point x="72" y="103"/>
      <point x="136" y="-56"/>
    </contour>
  </outline>
</glyph>
<glyph name="parenright" format="2">
  <advance height="1000" width="314"/>
  <unicode hex="0029"/>
  <outline>
    <contour>
      <point x="33" y="-196" type="curve"/>
      <point x="52" y="-196" type="line"/>
      <point x="178" y="-56"/>
      <point x="242" y="104"/>
      <point x="242" y="273" type="curve" smooth="yes"/>
      <point x="242" y="442"/>
      <point x="178" y="601"/>
      <point x="52" y="741" type="curve"/>
      <point x="32" y="741" type="line"/>
      <point x="159" y="601"/>
      <point x="226" y="443"/>
      <point x="226" y="273" type="curve" smooth="yes"/>
      <point x="226" y="105"/>
      <point x="160" y="-56"/>
    </contour>
  </outline>
</glyph>
<glyph name="period" format="2">
  <advance height="1000" width="151"/>
  <unicode hex="002E"/>
  <outline>
    <contour>
      <point x="60" y="0" type="line"/>
      <point x="91" y="0" type="line"/>
      <point x="91" y="31" type="line"/>
      <point x="60" y="31" type="line"/>
    </contour>
  </outline>
</glyph>
<glyph name="zero" format="2">
  <advance height="1000" width="602"/>
  <unicode hex="0030"/>
  <outline>
    <contour>
      <point x="301" y="-8" type="curve" smooth="yes"/>
      <point x="462" y="-8"/>
      <point x="546" y="142"/>
      <point x="546" y="369" type="curve" smooth="yes"/>
      <point x="546" y="598"/>
      <point x="462" y="749"/>
      <point x="301" y="749" type="curve" smooth="yes"/>
      <point x="140" y="749"/>
      <point x="56" y="598"/>
      <point x="56" y="369" type="curve" smooth="yes"/>
      <point x="56" y="142"/>
      <point x="140" y="-8"/>
    </contour>
    <contour>
      <point x="301" y="7" type="curve" smooth="yes"/>
      <point x="163" y="7"/>
      <point x="72" y="133"/>
      <point x="72" y="369" type="curve" smooth="yes"/>
      <point x="72" y="608"/>
      <point x="163" y="734"/>
      <point x="301" y="734" type="curve" smooth="yes"/>
      <point x="439" y="734"/>
      <point x="530" y="608"/>
      <point x="530" y="369" type="curve" smooth="yes"/>
      <point x="530" y="133"/>
      <point x="439" y="7"/>
    </contour>
  </outline>
</glyph>
<glyph name="one" format="2">
  <advance height="1000" width="361"/>
  <unicode hex="0031"/>
  <outline>
    <contour>
      <point x="205" y="0" type="line"/>
      <point x="221" y="0" type="line"/>
      <point x="221" y="744" type="line"/>
      <point x="48" y="707" type="line"/>
      <point x="48" y="691" type="line"/>
      <point x="205" y="725" type="line"/>
    </contour>
  </outline>
</glyph>
<glyph name="two" format="2">
  <advance height="1000" width="546"/>
  <unicode hex="0032"/>
  <outline>
    <contour>
      <point x="56" y="0" type="line"/>
      <point x="490" y="0" type="line"/>
      <point x="490" y="16" type="line"/>
      <point x="82" y="16" type="line"/>
      <point x="222" y="151" type="line" smooth="yes"/>
      <point x="420" y="342"/>
      <point x="477" y="425"/>
      <point x="477" y="531" type="curve" smooth="yes"/>
      <point x="477" y="664"/>
      <point x="392" y="748"/>
      <point x="268" y="748" type="curve" smooth="yes"/>
      <point x="199" y="748"/>
      <point x="122" y="721"/>
      <point x="68" y="682" type="curve"/>
      <point x="68" y="662" type="line"/>
      <point x="128" y="707"/>
      <point x="203" y="733"/>
      <point x="268" y="733" type="curve" smooth="yes"/>
      <point x="382" y="733"/>
      <point x="461" y="654"/>
      <point x="461" y="531" type="curve" smooth="yes"/>
      <point x="461" y="429"/>
      <point x="404" y="347"/>
      <point x="211" y="162" type="curve"/>
      <point x="56" y="15" type="line"/>
    </contour>
  </outline>
</glyph>
<glyph name="three" format="2">
  <advance height="1000" width="512"/>
  <unicode hex="0033"/>
  <outline>
    <contour>
      <point x="246" y="-8" type="curve" smooth="yes"/>
      <point x="374" y="-8"/>
      <point x="460" y="71"/>
      <point x="460" y="189" type="curve" smooth="yes"/>
      <point x="460" y="289"/>
      <point x="393" y="361"/>
      <point x="286" y="383" type="curve"/>
      <point x="390" y="404"/>
      <point x="453" y="473"/>
      <point x="453" y="568" type="curve" smooth="yes"/>
      <point x="453" y="677"/>
      <point x="376" y="748"/>
      <point x="260" y="748" type="curve" smooth="yes"/>
      <point x="191" y="748"/>
      <point x="116" y="721"/>
      <point x="68" y="682" type="curve"/>
      <point x="68" y="662" type="line"/>
      <point x="124" y="707"/>
      <point x="194" y="733"/>
      <point x="260" y="733" type="curve" smooth="yes"/>
      <point x="365" y="733"/>
      <point x="437" y="669"/>
      <point x="437" y="568" type="curve" smooth="yes"/>
      <point x="437" y="461"/>
      <point x="347" y="391"/>
      <point x="215" y="391" type="curve" smooth="yes"/>
      <point x="183" y="391" type="line"/>
      <point x="183" y="376" type="line"/>
      <point x="215" y="376" type="line" smooth="yes"/>
      <point x="352" y="376"/>
      <point x="444" y="300"/>
      <point x="444" y="189" type="curve" smooth="yes"/>
      <point x="444" y="79"/>
      <point x="364" y="7"/>
      <point x="246" y="7" type="curve" smooth="yes"/>
      <point x="182" y="7"/>
      <point x="107" y="32"/>
      <point x="48" y="77" type="curve"/>
      <point x="48" y="55" type="line"/>
      <point x="103" y="16"/>
      <point x="178" y="-8"/>
    </contour>
  </outline>
</glyph>
<glyph name="four" format="2">
  <advance height="1000" width="578"/>
  <unicode hex="0034"/>
  <outline>
    <contour>
      <point x="399" y="0" type="line"/>
      <point x="416" y="0" type="line"/>
      <point x="416" y="223" type="line"/>
      <point x="530" y="223" type="line"/>
      <point x="530" y="238" type="line"/>
      <point x="416" y="238" type="line"/>
      <point x="416" y="758" type="line"/>
      <point x="402" y="758" type="line"/>
      <point x="44" y="236" type="line"/>
      <point x="44" y="223" type="line"/>
      <point x="399" y="223" type="line"/>
    </contour>
    <contour>
      <point x="64" y="238" type="line"/>
      <point x="399" y="726" type="line"/>
      <point x="399" y="238" type="line"/>
    </contour>
  </outline>
</glyph>
<glyph name="five" format="2">
  <advance height="1000" width="544"/>
  <unicode hex="0035"/>
  <outline>
    <contour>
      <point x="260" y="-8" type="curve" smooth="yes"/>
      <point x="398" y="-8"/>
      <point x="488" y="81"/>
      <point x="488" y="213" type="curve" smooth="yes"/>
      <point x="488" y="343"/>
      <point x="390" y="430"/>
      <point x="241" y="430" type="curve" smooth="yes"/>
      <point x="195" y="430"/>
      <point x="156" y="426"/>
      <point x="115" y="421" type="curve"/>
      <point x="141" y="724" type="line"/>
      <point x="470" y="724" type="line"/>
      <point x="470" y="740" type="line"/>
      <point x="126" y="740" type="line"/>
      <point x="97" y="402" type="line"/>
      <point x="152" y="411"/>
      <point x="191" y="415"/>
      <point x="241" y="415" type="curve" smooth="yes"/>
      <point x="379" y="415"/>
      <point x="472" y="334"/>
      <point x="472" y="213" type="curve" smooth="yes"/>
      <point x="472" y="89"/>
      <point x="387" y="7"/>
      <point x="260" y="7" type="curve" smooth="yes"/>
      <point x="183" y="7"/>
      <point x="111" y="43"/>
      <point x="56" y="102" type="curve"/>
      <point x="56" y="77" type="line"/>
      <point x="107" y="27"/>
      <point x="178" y="-8"/>
    </contour>
  </outline>
</glyph>
<glyph name="six" format="2">
  <advance height="1000" width="569"/>
  <unicode hex="0036"/>
  <outline>
    <contour>
      <point x="296" y="-8" type="curve" smooth="yes"/>
      <point x="425" y="-8"/>
      <point x="513" y="89"/>
      <point x="513" y="235" type="curve" smooth="yes"/>
      <point x="513" y="375"/>
      <point x="424" y="470"/>
      <point x="291" y="470" type="curve" smooth="yes"/>
      <point x="195" y="470"/>
      <point x="112" y="422"/>
      <point x="79" y="359" type="curve"/>
      <point x="92" y="606"/>
      <point x="181" y="733"/>
      <point x="347" y="733" type="curve" smooth="yes"/>
      <point x="393" y="733"/>
      <point x="442" y="721"/>
      <point x="489" y="697" type="curve"/>
      <point x="489" y="713" type="line"/>
      <point x="448" y="733"/>
      <point x="394" y="748"/>
      <point x="347" y="748" type="curve" smooth="yes"/>
      <point x="159" y="748"/>
      <point x="60" y="597"/>
      <point x="60" y="296" type="curve" smooth="yes"/>
      <point x="60" y="109"/>
      <point x="147" y="-8"/>
    </contour>
    <contour>
      <point x="296" y="7" type="curve" smooth="yes"/>
      <point x="157" y="7"/>
      <point x="76" y="117"/>
      <point x="76" y="296" type="curve" smooth="yes"/>
      <point x="76" y="381"/>
      <point x="176" y="455"/>
      <point x="291" y="455" type="curve" smooth="yes"/>
      <point x="413" y="455"/>
      <point x="496" y="366"/>
      <point x="496" y="235" type="curve" smooth="yes"/>
      <point x="496" y="99"/>
      <point x="416" y="7"/>
    </contour>
  </outline>
</glyph>
<glyph name="semicolon" format="2">
  <advance height="1000" width="142"/>
  <unicode hex="003B"/>
  <outline>
    <contour>
      <point x="36" y="-116" type="line"/>
      <point x="66" y="-79"/>
      <point x="77" y="-41"/>
      <point x="77" y="20" type="curve" smooth="yes"/>
      <point x="77" y="83" type="line"/>
      <point x="61" y="83" type="line"/>
      <point x="61" y="20" type="line" smooth="yes"/>
      <point x="61" y="-32"/>
      <point x="52" y="-70"/>
      <point x="24" y="-107" type="curve"/>
    </contour>
    <contour>
      <point x="51" y="316" type="line"/>
      <point x="82" y="316" type="line"/>
      <point x="82" y="347" type="line"/>
      <point x="51" y="347" type="line"/>
    </contour>
  </outline>
</glyph>
<glyph name="question" format="2">
  <advance height="1000" width="415"/>
  <unicode hex="003F"/>
  <outline>
    <contour>
      <point x="181" y="166" type="curve"/>
      <point x="195" y="166" type="line"/>
      <point x="195" y="237"/>
      <point x="225" y="318"/>
      <point x="283" y="384" type="curve" smooth="yes"/>
      <point x="338" y="447"/>
      <point x="375" y="520"/>
      <point x="375" y="580" type="curve" smooth="yes"/>
      <point x="375" y="691"/>
      <point x="302" y="748"/>
      <point x="199" y="748" type="curve" smooth="yes"/>
      <point x="137" y="748"/>
      <point x="80" y="730"/>
      <point x="40" y="696" type="curve"/>
      <point x="40" y="677" type="line"/>
      <point x="75" y="711"/>
      <point x="130" y="733"/>
      <point x="199" y="733" type="curve" smooth="yes"/>
      <point x="302" y="733"/>
      <point x="359" y="672"/>
      <point x="359" y="580" type="curve" smooth="yes"/>
      <point x="359" y="529"/>
      <point x="329" y="462"/>
      <point x="272" y="396" type="curve" smooth="yes"/>
      <point x="217" y="334"/>
      <point x="181" y="247"/>
    </contour>
    <contour>
      <point x="172" y="0" type="line"/>
      <point x="204" y="0" type="line"/>
      <point x="204" y="32" type="line"/>
      <point x="172" y="32" type="line"/>
    </contour>
  </outline>
</glyph>
<glyph name="at" format="2">
  <advance height="1000" width="894"/>
  <unicode hex="0040"/>
  <outline>
    <contour>
      <point x="435" y="-62" type="curve" smooth="yes"/>
      <point x="507" y="-62"/>
      <point x="576" y="-46"/>
      <point x="637" y="-15" type="curve"/>
      <point x="637" y="3" type="line"/>
      <point x="574" y="-29"/>
      <point x="508" y="-46"/>
      <point x="435" y="-46" type="curve" smooth="yes"/>
      <point x="217" y="-46"/>
      <point x="72" y="115"/>
      <point x="72" y="325" type="curve" smooth="yes"/>
      <point x="72" y="523"/>
      <point x="226" y="700"/>
      <point x="447" y="700" type="curve" smooth="yes"/>
      <point x="658" y="700"/>
      <point x="822" y="555"/>
      <point x="822" y="359" type="curve" smooth="yes"/>
      <point x="822" y="233"/>
      <point x="756" y="150"/>
      <point x="678" y="150" type="curve" smooth="yes"/>
      <point x="600" y="150"/>
      <point x="563" y="230"/>
      <point x="575" y="321" type="curve" smooth="yes"/>
      <point x="602" y="525" type="line"/>
      <point x="570" y="535"/>
      <point x="530" y="538"/>
      <point x="500" y="538" type="curve" smooth="yes"/>
      <point x="364" y="538"/>
      <point x="246" y="442"/>
      <point x="246" y="297" type="curve" smooth="yes"/>
      <point x="246" y="199"/>
      <point x="305" y="134"/>
      <point x="394" y="134" type="curve" smooth="yes"/>
      <point x="466" y="134"/>
      <point x="527" y="180"/>
      <point x="558" y="271" type="curve"/>
      <point x="564" y="187"/>
      <point x="614" y="134"/>
      <point x="678" y="134" type="curve" smooth="yes"/>
      <point x="773" y="134"/>
      <point x="838" y="237"/>
      <point x="838" y="360" type="curve" smooth="yes"/>
      <point x="838" y="573"/>
      <point x="658" y="716"/>
      <point x="447" y="716" type="curve" smooth="yes"/>
      <point x="240" y="716"/>
      <point x="56" y="555"/>
      <point x="56" y="325" type="curve" smooth="yes"/>
      <point x="56" y="101"/>
      <point x="213" y="-62"/>
    </contour>
    <contour>
      <point x="394" y="150" type="curve" smooth="yes"/>
      <point x="315" y="150"/>
      <point x="263" y="209"/>
      <point x="263" y="297" type="curve" smooth="yes"/>
      <point x="263" y="419"/>
      <point x="358" y="522"/>
      <point x="500" y="522" type="curve" smooth="yes"/>
      <point x="526" y="522"/>
      <point x="559" y="519"/>
      <point x="583" y="514" type="curve"/>
      <point x="562" y="348" type="line" smooth="yes"/>
      <point x="546" y="230"/>
      <point x="486" y="150"/>
    </contour>
  </outline>
</glyph>
<glyph name="A" format="2">
  <advance height="1000" width="641"/>
  <unicode hex="0041"/>
  <guideline x="603.0" y="0.0" angle="291.6677908397963" identifier="nIUENwc6wG"/>
  <outline>
    <contour>
      <point x="600" y="0" type="line"/>
      <point x="617" y="0" type="line"/>
      <point x="324" y="740" type="line"/>
      <point x="317" y="740" type="line"/>
      <point x="24" y="0" type="line"/>
      <point x="40" y="0" type="line"/>
      <point x="320" y="707" type="line"/>
    </contour>
    <contour>
      <point x="148" y="291" type="line"/>
      <point x="492" y="291" type="line"/>
      <point x="492" y="306" type="line"/>
      <point x="148" y="306" type="line"/>
    </contour>
  </outline>
</glyph>
<glyph name="C" format="2">
  <advance height="1000" width="706"/>
  <unicode hex="0043"/>
  <outline>
    <contour>
      <point x="436" y="-8" type="curve" smooth="yes"/>
      <point x="517" y="-8"/>
      <point x="588" y="10"/>
      <point x="658" y="45" type="curve"/>
      <point x="658" y="64" type="line"/>
      <point x="590" y="26"/>
      <point x="513" y="8"/>
      <point x="436" y="8" type="curve" smooth="yes"/>
      <point x="220" y="8"/>
      <point x="75" y="153"/>
      <point x="75" y="370" type="curve" smooth="yes"/>
      <point x="75" y="588"/>
      <point x="220" y="734"/>
      <point x="436" y="734" type="curve" smooth="yes"/>
      <point x="511" y="734"/>
      <point x="584" y="721"/>
      <point x="651" y="691" type="curve"/>
      <point x="651" y="708" type="line"/>
      <point x="581" y="738"/>
      <point x="514" y="750"/>
      <point x="436" y="750" type="curve" smooth="yes"/>
      <point x="211" y="750"/>
      <point x="60" y="599"/>
      <point x="60" y="370" type="curve" smooth="yes"/>
      <point x="60" y="143"/>
      <point x="211" y="-8"/>
    </contour>
  </outline>
</glyph>
<glyph name="I" format="2">
  <advance height="1000" width="192"/>
  <unicode hex="0049"/>
  <outline>
    <contour>
      <point x="88" y="0" type="line"/>
      <point x="104" y="0" type="line"/>
      <point x="104" y="740" type="line"/>
      <point x="88" y="740" type="line"/>
    </contour>
  </outline>
</glyph>
<glyph name="O" format="2">
  <advance height="1000" width="849"/>
  <unicode hex="004F"/>
  <outline>
    <contour>
      <point x="424" y="-8" type="curve" smooth="yes"/>
      <point x="643" y="-8"/>
      <point x="789" y="144"/>
      <point x="789" y="371" type="curve" smooth="yes"/>
      <point x="789" y="598"/>
      <point x="643" y="749"/>
      <point x="424" y="749" type="curve" smooth="yes"/>
      <point x="206" y="749"/>
      <point x="60" y="599"/>
      <point x="60" y="371" type="curve" smooth="yes"/>
      <point x="60" y="144"/>
      <point x="206" y="-8"/>
    </contour>
    <contour>
      <point x="424" y="8" type="curve" smooth="yes"/>
      <point x="216" y="8"/>
      <point x="77" y="153"/>
      <point x="77" y="371" type="curve" smooth="yes"/>
      <point x="77" y="590"/>
      <point x="216" y="733"/>
      <point x="424" y="733" type="curve" smooth="yes"/>
      <point x="633" y="733"/>
      <point x="772" y="588"/>
      <point x="772" y="371" type="curve" smooth="yes"/>
      <point x="772" y="153"/>
      <point x="633" y="8"/>
    </contour>
  </outline>
</glyph>
<glyph name="U" format="2">
  <advance height="1000" width="719"/>
  <unicode hex="0055"/>
  <outline>
    <contour>
      <point x="359" y="-8" type="curve" smooth="yes"/>
      <point x="526" y="-8"/>
      <point x="639" y="108"/>
      <point x="639" y="286" type="curve" smooth="yes"/>
      <point x="639" y="740" type="line"/>
      <point x="624" y="740" type="line"/>
      <point x="624" y="286" type="line" smooth="yes"/>
      <point x="624" y="119"/>
      <point x="518" y="8"/>
      <point x="359" y="8" type="curve" smooth="yes"/>
      <point x="202" y="8"/>
      <point x="96" y="119"/>
      <point x="96" y="286" type="curve" smooth="yes"/>
      <point x="96" y="740" type="line"/>
      <point x="80" y="740" type="line"/>
      <point x="80" y="286" type="line" smooth="yes"/>
      <point x="80" y="108"/>
      <point x="192" y="-8"/>
    </contour>
  </outline>
</glyph>
<glyph name="V" format="2">
  <advance height="1000" width="652"/>
  <unicode hex="0056"/>
  <outline>
    <contour>
      <point x="320" y="0" type="line"/>
      <point x="333" y="0" type="line"/>
      <point x="628" y="740" type="line"/>
      <point x="610" y="740" type="line"/>
      <point x="326" y="26" type="line"/>
      <point x="41" y="740" type="line"/>
      <point x="24" y="740" type="line"/>
    </contour>
  </outline>
</glyph>
<glyph name="W" format="2">
  <advance height="1000" width="993"/>
  <unicode hex="0057"/>
  <outline>
    <contour>
      <point x="259" y="0" type="line"/>
      <point x="272" y="0" type="line"/>
      <point x="498" y="708" type="line"/>
      <point x="721" y="0" type="line"/>
      <point x="734" y="0" type="line"/>
      <point x="969" y="740" type="line"/>
      <point x="953" y="740" type="line"/>
      <point x="729" y="30" type="line"/>
      <point x="505" y="740" type="line"/>
      <point x="491" y="740" type="line"/>
      <point x="267" y="31" type="line"/>
      <point x="42" y="740" type="line"/>
      <point x="24" y="740" type="line"/>
    </contour>
  </outline>
</glyph>
<glyph name="bracketleft" format="2">
  <advance height="1000" width="289"/>
  <unicode hex="005B"/>
  <outline>
    <contour>
      <point x="88" y="-197" type="line"/>
      <point x="241" y="-197" type="line"/>
      <point x="241" y="-182" type="line"/>
      <point x="104" y="-182" type="line"/>
      <point x="104" y="725" type="line"/>
      <point x="241" y="725" type="line"/>
      <point x="241" y="740" type="line"/>
      <point x="88" y="740" type="line"/>
    </contour>
  </outline>
</glyph>
<glyph name="b" format="2">
  <advance height="1000" width="534"/>
  <unicode hex="0062"/>
  <outline>
    <contour>
      <point x="238" y="-8" type="curve" smooth="yes"/>
      <point x="387" y="-8"/>
      <point x="486" y="101"/>
      <point x="486" y="266" type="curve" smooth="yes"/>
      <point x="486" y="427"/>
      <point x="396" y="533"/>
      <point x="256" y="533" type="curve" smooth="yes"/>
      <point x="196" y="533"/>
      <point x="140" y="512"/>
      <point x="92" y="472" type="curve"/>
      <point x="92" y="740" type="line"/>
      <point x="76" y="740" type="line"/>
      <point x="76" y="22" type="line"/>
      <point x="123" y="3"/>
      <point x="186" y="-8"/>
    </contour>
    <contour>
      <point x="238" y="7" type="curve" smooth="yes"/>
      <point x="195" y="7"/>
      <point x="136" y="17"/>
      <point x="92" y="32" type="curve"/>
      <point x="92" y="452" type="line"/>
      <point x="138" y="494"/>
      <point x="196" y="518"/>
      <point x="256" y="518" type="curve" smooth="yes"/>
      <point x="387" y="518"/>
      <point x="470" y="416"/>
      <point x="470" y="266" type="curve" smooth="yes"/>
      <point x="470" y="112"/>
      <point x="378" y="7"/>
    </contour>
  </outline>
</glyph>
<glyph name="d" format="2">
  <advance height="1000" width="545"/>
  <unicode hex="0064"/>
  <outline>
    <contour>
      <point x="281.0" y="-8.0" type="curve" smooth="yes"/>
      <point x="351.0" y="-8.0"/>
      <point x="412.0" y="23.0"/>
      <point x="453.0" y="69.0" type="curve"/>
      <point x="456.0" y="0.0" type="line"/>
      <point x="469.0" y="0.0" type="line"/>
      <point x="469.0" y="740.0" type="line"/>
      <point x="453.0" y="740.0" type="line"/>
      <point x="453.0" y="471.0" type="line"/>
      <point x="408.0" y="510.0"/>
      <point x="350.0" y="533.0"/>
      <point x="287.0" y="533.0" type="curve" smooth="yes"/>
      <point x="148.0" y="533.0"/>
      <point x="48.0" y="426.0"/>
      <point x="48.0" y="263.0" type="curve" smooth="yes"/>
      <point x="48.0" y="100.0"/>
      <point x="142.0" y="-8.0"/>
    </contour>
    <contour>
      <point x="281.0" y="7.0" type="curve" smooth="yes"/>
      <point x="152.0" y="7.0"/>
      <point x="64.0" y="110.0"/>
      <point x="64.0" y="263.0" type="curve" smooth="yes"/>
      <point x="64.0" y="415.0"/>
      <point x="158.0" y="518.0"/>
      <point x="287.0" y="518.0" type="curve" smooth="yes"/>
      <point x="347.0" y="518.0"/>
      <point x="405.0" y="494.0"/>
      <point x="453.0" y="452.0" type="curve"/>
      <point x="453.0" y="90.0" type="line"/>
      <point x="409.0" y="35.0"/>
      <point x="345.0" y="7.0"/>
    </contour>
  </outline>
</glyph>
<glyph name="e" format="2">
  <advance height="1000" width="538"/>
  <unicode hex="0065"/>
  <outline>
    <contour>
      <point x="287.0" y="-8.0" type="curve" smooth="yes"/>
      <point x="353.0" y="-8.0"/>
      <point x="415.0" y="11.0"/>
      <point x="473.0" y="50.0" type="curve"/>
      <point x="473.0" y="68.0" type="line"/>
      <point x="414.0" y="28.0"/>
      <point x="353.0" y="7.0"/>
      <point x="287.0" y="7.0" type="curve" smooth="yes"/>
      <point x="154.0" y="7.0"/>
      <point x="65.0" y="109.0"/>
      <point x="65.0" y="261.0" type="curve" smooth="yes"/>
      <point x="65.0" y="279.0" type="line"/>
      <point x="486.0" y="279.0" type="line"/>
      <point x="486.0" y="284.0" type="line" smooth="yes"/>
      <point x="486.0" y="432.0"/>
      <point x="402.0" y="533.0"/>
      <point x="278.0" y="533.0" type="curve" smooth="yes"/>
      <point x="139.0" y="533.0"/>
      <point x="48.0" y="424.0"/>
      <point x="48.0" y="263.0" type="curve" smooth="yes"/>
      <point x="48.0" y="100.0"/>
      <point x="145.0" y="-8.0"/>
    </contour>
    <contour>
      <point x="278.0" y="518.0" type="curve" smooth="yes"/>
      <point x="392.0" y="518.0"/>
      <point x="467.0" y="426.0"/>
      <point x="469.0" y="294.0" type="curve"/>
      <point x="66.0" y="294.0" type="line"/>
      <point x="75.0" y="425.0"/>
      <point x="157.0" y="518.0"/>
    </contour>
  </outline>
</glyph>
<glyph name="h" format="2">
  <advance height="1000" width="503"/>
  <unicode hex="0068"/>
  <outline>
    <contour>
      <point x="92" y="0" type="line"/>
      <point x="92" y="418" type="line"/>
      <point x="120" y="475"/>
      <point x="184" y="518"/>
      <point x="254" y="518" type="curve" smooth="yes"/>
      <point x="350" y="518"/>
      <point x="415" y="449"/>
      <point x="415" y="347" type="curve" smooth="yes"/>
      <point x="415" y="0" type="line"/>
      <point x="431" y="0" type="line"/>
      <point x="431" y="347" type="line" smooth="yes"/>
      <point x="431" y="458"/>
      <point x="359" y="533"/>
      <point x="254" y="533" type="curve" smooth="yes"/>
      <point x="187" y="533"/>
      <point x="125" y="498"/>
      <point x="92" y="448" type="curve"/>
      <point x="92" y="740" type="line"/>
      <point x="76" y="740" type="line"/>
      <point x="76" y="0" type="line"/>
    </contour>
  </outline>
</glyph>
<glyph name="i" format="2">
  <advance height="1000" width="174"/>
  <unicode hex="0069"/>
  <outline>
    <contour>
      <point x="79" y="0" type="line"/>
      <point x="95" y="0" type="line"/>
      <point x="95" y="525" type="line"/>
      <point x="79" y="525" type="line"/>
    </contour>
    <contour>
      <point x="76" y="718" type="line"/>
      <point x="98" y="718" type="line"/>
      <point x="98" y="740" type="line"/>
      <point x="76" y="740" type="line"/>
    </contour>
  </outline>
</glyph>
<glyph name="k" format="2">
  <advance height="1000" width="450"/>
  <unicode hex="006B"/>
  <outline>
    <contour>
      <point x="76" y="0" type="line"/>
      <point x="92" y="0" type="line"/>
      <point x="92" y="266" type="line"/>
      <point x="404" y="0" type="line"/>
      <point x="430" y="0" type="line"/>
      <point x="109" y="272" type="line"/>
      <point x="402" y="525" type="line"/>
      <point x="378" y="525" type="line"/>
      <point x="92" y="277" type="line"/>
      <point x="92" y="740" type="line"/>
      <point x="76" y="740" type="line"/>
    </contour>
  </outline>
</glyph>
<glyph name="m" format="2">
  <advance height="1000" width="824"/>
  <unicode hex="006D"/>
  <outline>
    <contour>
      <point x="76" y="0" type="line"/>
      <point x="92" y="0" type="line"/>
      <point x="92" y="417" type="line"/>
      <point x="121" y="478"/>
      <point x="182" y="518"/>
      <point x="249" y="518" type="curve" smooth="yes"/>
      <point x="346" y="518"/>
      <point x="406" y="450"/>
      <point x="406" y="364" type="curve" smooth="yes"/>
      <point x="406" y="0" type="line"/>
      <point x="422" y="0" type="line"/>
      <point x="422" y="377" type="line"/>
      <point x="441" y="471"/>
      <point x="497" y="518"/>
      <point x="580" y="518" type="curve" smooth="yes"/>
      <point x="673" y="518"/>
      <point x="736" y="450"/>
      <point x="736" y="348" type="curve" smooth="yes"/>
      <point x="736" y="0" type="line"/>
      <point x="752" y="0" type="line"/>
      <point x="752" y="348" type="line" smooth="yes"/>
      <point x="752" y="459"/>
      <point x="683" y="533"/>
      <point x="580" y="533" type="curve" smooth="yes"/>
      <point x="498" y="533"/>
      <point x="442" y="493"/>
      <point x="416" y="413" type="curve"/>
      <point x="395" y="491"/>
      <point x="329" y="533"/>
      <point x="249" y="533" type="curve" smooth="yes"/>
      <point x="184" y="533"/>
      <point x="126" y="500"/>
      <point x="92" y="448" type="curve"/>
      <point x="92" y="525" type="line"/>
      <point x="76" y="525" type="line"/>
    </contour>
  </outline>
</glyph>
<glyph name="q" format="2">
  <advance height="1000" width="545"/>
  <unicode hex="0071"/>
  <outline>
    <contour>
      <point x="453.0" y="-197.0" type="line"/>
      <point x="469.0" y="-197.0" type="line"/>
      <point x="469.0" y="525.0" type="line"/>
      <point x="456.0" y="525.0" type="line"/>
      <point x="453.0" y="473.0" type="line"/>
      <point x="407.0" y="509.0"/>
      <point x="350.0" y="534.0"/>
      <point x="287.0" y="534.0" type="curve" smooth="yes"/>
      <point x="148.0" y="534.0"/>
      <point x="48.0" y="427.0"/>
      <point x="48.0" y="265.0" type="curve" smooth="yes"/>
      <point x="48.0" y="102.0"/>
      <point x="142.0" y="-8.0"/>
      <point x="281.0" y="-8.0" type="curve" smooth="yes"/>
      <point x="351.0" y="-8.0"/>
      <point x="412.0" y="22.0"/>
      <point x="453.0" y="69.0" type="curve"/>
    </contour>
    <contour>
      <point x="281.0" y="7.0" type="curve" smooth="yes"/>
      <point x="152.0" y="7.0"/>
      <point x="64.0" y="112.0"/>
      <point x="64.0" y="265.0" type="curve" smooth="yes"/>
      <point x="64.0" y="417.0"/>
      <point x="158.0" y="519.0"/>
      <point x="287.0" y="519.0" type="curve" smooth="yes"/>
      <point x="347.0" y="519.0"/>
      <point x="405.0" y="496.0"/>
      <point x="453.0" y="454.0" type="curve"/>
      <point x="453.0" y="91.0" type="line"/>
      <point x="409.0" y="37.0"/>
      <point x="345.0" y="7.0"/>
    </contour>
  </outline>
</glyph>
<glyph name="r" format="2">
  <advance height="1000" width="299"/>
  <unicode hex="0072"/>
  <outline>
    <contour>
      <point x="76" y="0" type="line"/>
      <point x="92" y="0" type="line"/>
      <point x="92" y="412" type="line"/>
      <point x="122" y="481"/>
      <point x="169" y="518"/>
      <point x="219" y="518" type="curve" smooth="yes"/>
      <point x="242" y="518"/>
      <point x="260" y="515"/>
      <point x="287" y="503" type="curve"/>
      <point x="287" y="519" type="line"/>
      <point x="262" y="529"/>
      <point x="244" y="533"/>
      <point x="219" y="533" type="curve" smooth="yes"/>
      <point x="170" y="533"/>
      <point x="123" y="504"/>
      <point x="92" y="445" type="curve"/>
      <point x="92" y="525" type="line"/>
      <point x="76" y="525" type="line"/>
    </contour>
  </outline>
</glyph>
<glyph name="w" format="2">
  <advance height="1000" width="767"/>
  <unicode hex="0077"/>
  <outline>
    <contour>
      <point x="200.0" y="0.0" type="line"/>
      <point x="213.0" y="0.0" type="line"/>
      <point x="383.0" y="495.0" type="line"/>
      <point x="553.0" y="0.0" type="line"/>
      <point x="567.0" y="0.0" type="line"/>
      <point x="747.0" y="525.0" type="line"/>
      <point x="730.0" y="525.0" type="line"/>
      <point x="560.0" y="27.0" type="line"/>
      <point x="391.0" y="525.0" type="line"/>
      <point x="376.0" y="525.0" type="line"/>
      <point x="207.0" y="28.0" type="line"/>
      <point x="37.0" y="525.0" type="line"/>
      <point x="20.0" y="525.0" type="line"/>
    </contour>
  </outline>
</glyph>
<glyph name="x" format="2">
  <advance height="1000" width="465"/>
  <unicode hex="0078"/>
  <outline>
    <contour>
      <point x="32" y="0" type="line"/>
      <point x="52" y="0" type="line"/>
      <point x="233" y="260" type="line"/>
      <point x="412" y="0" type="line"/>
      <point x="433" y="0" type="line"/>
      <point x="242" y="274" type="line"/>
      <point x="416" y="525" type="line"/>
      <point x="396" y="525" type="line"/>
      <point x="234" y="285" type="line"/>
      <point x="72" y="525" type="line"/>
      <point x="51" y="525" type="line"/>
      <point x="224" y="273" type="line"/>
    </contour>
  </outline>
</glyph>
<glyph name="z" format="2">
  <advance height="1000" width="452"/>
  <unicode hex="007A"/>
  <outline>
    <contour>
      <point x="48" y="0" type="line"/>
      <point x="404" y="0" type="line"/>
      <point x="404" y="15" type="line"/>
      <point x="68" y="15" type="line"/>
      <point x="404" y="512" type="line"/>
      <point x="404" y="525" type="line"/>
      <point x="48" y="525" type="line"/>
      <point x="48" y="510" type="line"/>
      <point x="384" y="510" type="line"/>
      <point x="48" y="14" type="line"/>
    </contour>
  </outline>
</glyph>
<glyph name="braceright" format="2">
  <advance height="1000" width="452"/>
  <unicode hex="007D"/>
  <outline>
    <contour>
      <point x="20" y="-181" type="line"/>
      <point x="55" y="-181" type="line" smooth="yes"/>
      <point x="177" y="-181"/>
      <point x="253" y="-102"/>
      <point x="244" y="16" type="curve" smooth="yes"/>
      <point x="235" y="129" type="line" smooth="yes"/>
      <point x="228" y="217"/>
      <point x="291" y="284"/>
      <point x="392" y="297" type="curve"/>
      <point x="392" y="309" type="line"/>
      <point x="291" y="320"/>
      <point x="228" y="387"/>
      <point x="235" y="476" type="curve" smooth="yes"/>
      <point x="244" y="589" type="line" smooth="yes"/>
      <point x="254" y="708"/>
      <point x="179" y="787"/>
      <point x="56" y="787" type="curve" smooth="yes"/>
      <point x="20" y="787" type="line"/>
      <point x="20" y="772" type="line"/>
      <point x="56" y="772" type="line" smooth="yes"/>
      <point x="167" y="772"/>
      <point x="236" y="699"/>
      <point x="227" y="589" type="curve" smooth="yes"/>
      <point x="218" y="476" type="line" smooth="yes"/>
      <point x="211" y="388"/>
      <point x="266" y="319"/>
      <point x="354" y="303" type="curve"/>
      <point x="265" y="287"/>
      <point x="211" y="217"/>
      <point x="218" y="129" type="curve" smooth="yes"/>
      <point x="227" y="16" type="line" smooth="yes"/>
      <point x="236" y="-93"/>
      <point x="167" y="-165"/>
      <point x="55" y="-165" type="curve" smooth="yes"/>
      <point x="20" y="-165" type="line"/>
    </contour>
  </outline>
</glyph>
<glyph name="Odieresis" format="2">
  <advance height="1000" width="849"/>
  <unicode hex="00D6"/>
  <outline>
    <contour>
      <point x="424" y="-8" type="curve" smooth="yes"/>
      <point x="643" y="-8"/>
      <point x="789" y="144"/>
      <point x="789" y="371" type="curve" smooth="yes"/>
      <point x="789" y="598"/>
      <point x="643" y="749"/>
      <point x="424" y="749" type="curve" smooth="yes"/>
      <point x="206" y="749"/>
      <point x="60" y="599"/>
      <point x="60" y="371" type="curve" smooth="yes"/>
      <point x="60" y="144"/>
      <point x="206" y="-8"/>
    </contour>
    <contour>
      <point x="424" y="8" type="curve" smooth="yes"/>
      <point x="216" y="8"/>
      <point x="77" y="153"/>
      <point x="77" y="371" type="curve" smooth="yes"/>
      <point x="77" y="590"/>
      <point x="216" y="733"/>
      <point x="424" y="733" type="curve" smooth="yes"/>
      <point x="633" y="733"/>
      <point x="772" y="588"/>
      <point x="772" y="371" type="curve" smooth="yes"/>
      <point x="772" y="153"/>
      <point x="633" y="8"/>
    </contour>
    <contour>
      <point x="344" y="787" type="line"/>
      <point x="372" y="787" type="line"/>
      <point x="372" y="815" type="line"/>
      <point x="344" y="815" type="line"/>
    </contour>
    <contour>
      <point x="476" y="787" type="line"/>
      <point x="504" y="787" type="line"/>
      <point x="504" y="815" type="line"/>
      <point x="476" y="815" type="line"/>
    </contour>
  </outline>
</glyph>
<glyph name="oacute" format="2">
  <advance height="1000" width="600"/>
  <unicode hex="00F3"/>
  <outline>
    <contour>
      <point x="300.0" y="-8.0" type="curve" smooth="yes"/>
      <point x="451.0" y="-8.0"/>
      <point x="552.0" y="100.0"/>
      <point x="552.0" y="261.0" type="curve" smooth="yes"/>
      <point x="552.0" y="422.0"/>
      <point x="451.0" y="533.0"/>
      <point x="300.0" y="533.0" type="curve" smooth="yes"/>
      <point x="149.0" y="533.0"/>
      <point x="48.0" y="422.0"/>
      <point x="48.0" y="261.0" type="curve" smooth="yes"/>
      <point x="48.0" y="100.0"/>
      <point x="149.0" y="-8.0"/>
    </contour>
    <contour>
      <point x="300.0" y="7.0" type="curve" smooth="yes"/>
      <point x="158.0" y="7.0"/>
      <point x="64.0" y="109.0"/>
      <point x="64.0" y="261.0" type="curve" smooth="yes"/>
      <point x="64.0" y="412.0"/>
      <point x="158.0" y="518.0"/>
      <point x="300.0" y="518.0" type="curve" smooth="yes"/>
      <point x="442.0" y="518.0"/>
      <point x="536.0" y="412.0"/>
      <point x="536.0" y="261.0" type="curve" smooth="yes"/>
      <point x="536.0" y="109.0"/>
      <point x="442.0" y="7.0"/>
    </contour>
    <contour>
      <point x="292" y="582" type="line"/>
      <point x="392" y="708" type="line"/>
      <point x="372" y="708" type="line"/>
      <point x="273" y="582" type="line"/>
    </contour>
  </outline>
</glyph>
<glyph name="Alphatonos" format="2">
  <advance height="1000" width="617"/>
  <unicode hex="0386"/>
  <outline>
    <contour>
      <point x="576" y="0" type="line"/>
      <point x="593" y="0" type="line"/>
      <point x="300" y="740" type="line"/>
      <point x="293" y="740" type="line"/>
      <point x="0" y="0" type="line"/>
      <point x="16" y="0" type="line"/>
      <point x="296" y="707" type="line"/>
    </contour>
    <contour>
      <point x="124" y="291" type="line"/>
      <point x="468" y="291" type="line"/>
      <point x="468" y="306" type="line"/>
      <point x="124" y="306" type="line"/>
    </contour>
    <contour>
      <point x="132" y="574" type="line"/>
      <point x="147" y="574" type="line"/>
      <point x="201" y="740" type="line"/>
      <point x="185" y="740" type="line"/>
    </contour>
  </outline>
</glyph>
<glyph name="Epsilontonos" format="2">
  <advance height="1000" width="537"/>
  <unicode hex="0388"/>
  <outline>
    <contour>
      <point x="110.0" y="0.0" type="line"/>
      <point x="477.0" y="0.0" type="line"/>
      <point x="477.0" y="15.0" type="line"/>
      <point x="126.0" y="15.0" type="line"/>
      <point x="126.0" y="366.0" type="line"/>
      <point x="446.0" y="366.0" type="line"/>
      <point x="446.0" y="381.0" type="line"/>
      <point x="126.0" y="381.0" type="line"/>
      <point x="126.0" y="725.0" type="line"/>
      <point x="463.0" y="725.0" type="line"/>
      <point x="463.0" y="740.0" type="line"/>
      <point x="110.0" y="740.0" type="line"/>
    </contour>
    <contour>
      <point x="0" y="574" type="line"/>
      <point x="15" y="574" type="line"/>
      <point x="69" y="740" type="line"/>
      <point x="53" y="740" type="line"/>
    </contour>
  </outline>
</glyph>
<glyph name="Beta" format="2">
  <advance height="1000" width="549"/>
  <unicode hex="0392"/>
  <outline>
    <contour>
      <point x="88.0" y="0.0" type="line"/>
      <point x="266.0" y="0.0" type="line" smooth="yes"/>
      <point x="399.0" y="0.0"/>
      <point x="485.0" y="80.0"/>
      <point x="485.0" y="198.0" type="curve" smooth="yes"/>
      <point x="485.0" y="289.0"/>
      <point x="423.0" y="358.0"/>
      <point x="322.0" y="379.0" type="curve"/>
      <point x="406.0" y="402.0"/>
      <point x="458.0" y="467.0"/>
      <point x="458.0" y="555.0" type="curve" smooth="yes"/>
      <point x="458.0" y="665.0"/>
      <point x="374.0" y="740.0"/>
      <point x="245.0" y="740.0" type="curve" smooth="yes"/>
      <point x="88.0" y="740.0" type="line"/>
    </contour>
    <contour>
      <point x="104.0" y="386.0" type="line"/>
      <point x="104.0" y="725.0" type="line"/>
      <point x="245.0" y="725.0" type="line" smooth="yes"/>
      <point x="363.0" y="725.0"/>
      <point x="442.0" y="658.0"/>
      <point x="442.0" y="555.0" type="curve" smooth="yes"/>
      <point x="442.0" y="453.0"/>
      <point x="365.0" y="386.0"/>
      <point x="251.0" y="386.0" type="curve" smooth="yes"/>
    </contour>
    <contour>
      <point x="104.0" y="15.0" type="line"/>
      <point x="104.0" y="371.0" type="line"/>
      <point x="251.0" y="371.0" type="line" smooth="yes"/>
      <point x="380.0" y="371.0"/>
      <point x="469.0" y="302.0"/>
      <point x="469.0" y="198.0" type="curve" smooth="yes"/>
      <point x="469.0" y="88.0"/>
      <point x="387.0" y="15.0"/>
      <point x="266.0" y="15.0" type="curve" smooth="yes"/>
    </contour>
  </outline>
</glyph>
<glyph name="Delta" format="2">
  <advance height="1000" width="632"/>
  <unicode hex="0394"/>
  <unicode hex="2206"/>
  <outline>
    <contour>
      <point x="24.0" y="0.0" type="line"/>
      <point x="608.0" y="0.0" type="line" smooth="yes"/>
      <point x="320.0" y="748.0" type="line" smooth="yes"/>
      <point x="312.0" y="748.0" type="line"/>
    </contour>
    <contour>
      <point x="47.0" y="16.0" type="line"/>
      <point x="316.0" y="712.0" type="line"/>
      <point x="585.0" y="16.0" type="line"/>
    </contour>
  </outline>
</glyph>
<glyph name="Eta" format="2">
  <advance height="1000" width="723"/>
  <unicode hex="0397"/>
  <outline>
    <contour>
      <point x="88" y="0" type="line"/>
      <point x="104" y="0" type="line"/>
      <point x="104" y="370" type="line"/>
      <point x="619" y="370" type="line"/>
      <point x="619" y="0" type="line"/>
      <point x="635" y="0" type="line"/>
      <point x="635" y="740" type="line"/>
      <point x="619" y="740" type="line"/>
      <point x="619" y="385" type="line"/>
      <point x="104" y="385" type="line"/>
      <point x="104" y="740" type="line"/>
      <point x="88" y="740" type="line"/>
    </contour>
  </outline>
</glyph>
<glyph name="Kappa" format="2">
  <advance height="1000" width="548"/>
  <unicode hex="039A"/>
  <outline>
    <contour>
      <point x="88.0" y="0.0" type="line"/>
      <point x="104.0" y="0.0" type="line"/>
      <point x="104.0" y="364.0" type="line"/>
      <point x="480.0" y="0.0" type="line"/>
      <point x="504.0" y="0.0" type="line"/>
      <point x="113.0" y="377.0" type="line"/>
      <point x="493.0" y="740.0" type="line"/>
      <point x="471.0" y="740.0" type="line"/>
      <point x="104.0" y="389.0" type="line"/>
      <point x="104.0" y="740.0" type="line"/>
      <point x="88.0" y="740.0" type="line"/>
    </contour>
  </outline>
</glyph>
<glyph name="Lambda" format="2">
  <advance height="1000" width="643"/>
  <unicode hex="039B"/>
  <outline>
    <contour>
      <point x="24" y="0" type="line"/>
      <point x="41" y="0" type="line"/>
      <point x="321" y="705" type="line"/>
      <point x="601" y="0" type="line"/>
      <point x="619" y="0" type="line"/>
      <point x="325" y="740" type="line"/>
      <point x="316" y="740" type="line"/>
    </contour>
  </outline>
</glyph>
<glyph name="Xi" format="2">
  <advance height="1000" width="742"/>
  <unicode hex="039E"/>
  <outline>
    <contour>
      <point x="106" y="740" type="line"/>
      <point x="106" y="725" type="line"/>
      <point x="668" y="725" type="line"/>
      <point x="668" y="740" type="line"/>
    </contour>
    <contour>
      <point x="123" y="381" type="line"/>
      <point x="123" y="366" type="line"/>
      <point x="651" y="366" type="line"/>
      <point x="651" y="381" type="line"/>
    </contour>
    <contour>
      <point x="92" y="15" type="line"/>
      <point x="92" y="0" type="line"/>
      <point x="682" y="0" type="line"/>
      <point x="682" y="15" type="line"/>
    </contour>
  </outline>
</glyph>
<glyph name="Rho" format="2">
  <advance height="1000" width="485"/>
  <unicode hex="03A1"/>
  <outline>
    <contour>
      <point x="88.0" y="0.0" type="line"/>
      <point x="104.0" y="0.0" type="line"/>
      <point x="104.0" y="313.0" type="line"/>
      <point x="186.0" y="313.0" type="line" smooth="yes"/>
      <point x="335.0" y="313.0"/>
      <point x="433.0" y="397.0"/>
      <point x="433.0" y="524.0" type="curve" smooth="yes"/>
      <point x="433.0" y="654.0"/>
      <point x="335.0" y="740.0"/>
      <point x="186.0" y="740.0" type="curve" smooth="yes"/>
      <point x="88.0" y="740.0" type="line"/>
    </contour>
    <contour>
      <point x="104.0" y="328.0" type="line"/>
      <point x="104.0" y="725.0" type="line"/>
      <point x="184.0" y="725.0" type="line" smooth="yes"/>
      <point x="324.0" y="725.0"/>
      <point x="417.0" y="644.0"/>
      <point x="417.0" y="524.0" type="curve" smooth="yes"/>
      <point x="417.0" y="407.0"/>
      <point x="324.0" y="328.0"/>
      <point x="186.0" y="328.0" type="curve" smooth="yes"/>
    </contour>
  </outline>
</glyph>
<glyph name="Sigma" format="2">
  <advance height="1000" width="621"/>
  <unicode hex="03A3"/>
  <outline>
    <contour>
      <point x="73" y="0" type="line"/>
      <point x="551" y="0" type="line"/>
      <point x="551" y="16" type="line"/>
      <point x="87" y="16" type="line"/>
      <point x="341" y="379" type="line"/>
      <point x="84" y="725" type="line"/>
      <point x="525" y="725" type="line"/>
      <point x="525" y="740" type="line"/>
      <point x="70" y="740" type="line"/>
      <point x="70" y="717" type="line"/>
      <point x="321" y="377" type="line"/>
      <point x="73" y="23" type="line"/>
    </contour>
  </outline>
</glyph>
<glyph name="Phi" format="2">
  <advance height="1000" width="926"/>
  <unicode hex="03A6"/>
  <outline>
    <contour>
      <point x="455" y="-32" type="line"/>
      <point x="471" y="-32" type="line"/>
      <point x="471" y="772" type="line"/>
      <point x="455" y="772" type="line"/>
    </contour>
    <contour>
      <point x="60" y="373" type="curve" smooth="yes"/>
      <point x="60" y="191"/>
      <point x="220" y="68"/>
      <point x="460" y="68" type="curve" smooth="yes"/>
      <point x="466" y="68" type="line" smooth="yes"/>
      <point x="707" y="68"/>
      <point x="866" y="191"/>
      <point x="866" y="373" type="curve" smooth="yes"/>
      <point x="866" y="555"/>
      <point x="707" y="680"/>
      <point x="467" y="680" type="curve" smooth="yes"/>
      <point x="459" y="680" type="line" smooth="yes"/>
      <point x="219" y="680"/>
      <point x="60" y="555"/>
    </contour>
    <contour>
      <point x="850" y="373" type="curve" smooth="yes"/>
      <point x="850" y="200"/>
      <point x="697" y="83"/>
      <point x="467" y="83" type="curve" smooth="yes"/>
      <point x="459" y="83" type="line" smooth="yes"/>
      <point x="229" y="83"/>
      <point x="76" y="200"/>
      <point x="76" y="373" type="curve" smooth="yes"/>
      <point x="76" y="546"/>
      <point x="230" y="665"/>
      <point x="460" y="665" type="curve" smooth="yes"/>
      <point x="466" y="665" type="line" smooth="yes"/>
      <point x="697" y="665"/>
      <point x="850" y="546"/>
    </contour>
  </outline>
</glyph>
<glyph name="Chi" format="2">
  <advance height="1000" width="625"/>
  <unicode hex="03A7"/>
  <outline>
    <contour>
      <point x="64.0" y="0.0" type="line"/>
      <point x="312.0" y="366.0" type="line"/>
      <point x="561.0" y="0.0" type="line"/>
      <point x="581.0" y="0.0" type="line"/>
      <point x="322.0" y="379.0" type="line"/>
      <point x="566.0" y="740.0" type="line"/>
      <point x="546.0" y="740.0" type="line"/>
      <point x="313.0" y="391.0" type="line"/>
      <point x="80.0" y="740.0" type="line"/>
      <point x="60.0" y="740.0" type="line"/>
      <point x="304.0" y="379.0" type="line"/>
      <point x="44.0" y="0.0" type="line"/>
    </contour>
  </outline>
</glyph>
<glyph name="epsilontonos" format="2">
  <advance height="1000" width="435"/>
  <unicode hex="03AD"/>
  <outline>
    <contour>
      <point x="212" y="-8" type="curve" smooth="yes"/>
      <point x="280" y="-8"/>
      <point x="347" y="13"/>
      <point x="391" y="48" type="curve"/>
      <point x="391" y="66" type="line"/>
      <point x="349" y="30"/>
      <point x="281" y="7"/>
      <point x="212" y="7" type="curve" smooth="yes"/>
      <point x="116" y="7"/>
      <point x="56" y="54"/>
      <point x="56" y="129" type="curve" smooth="yes"/>
      <point x="56" y="211"/>
      <point x="133" y="262"/>
      <point x="249" y="262" type="curve" smooth="yes"/>
      <point x="332" y="262" type="line"/>
      <point x="332" y="277" type="line"/>
      <point x="247" y="277" type="line" smooth="yes"/>
      <point x="131" y="277"/>
      <point x="66" y="326"/>
      <point x="66" y="396" type="curve" smooth="yes"/>
      <point x="66" y="471"/>
      <point x="125" y="518"/>
      <point x="227" y="518" type="curve" smooth="yes"/>
      <point x="278" y="518"/>
      <point x="332" y="501"/>
      <point x="368" y="475" type="curve"/>
      <point x="368" y="493" type="line"/>
      <point x="329" y="519"/>
      <point x="276" y="533"/>
      <point x="227" y="533" type="curve" smooth="yes"/>
      <point x="115" y="533"/>
      <point x="50" y="481"/>
      <point x="50" y="395" type="curve" smooth="yes"/>
      <point x="50" y="328"/>
      <point x="104" y="282"/>
      <point x="183" y="270" type="curve"/>
      <point x="94" y="251"/>
      <point x="40" y="197"/>
      <point x="40" y="126" type="curve" smooth="yes"/>
      <point x="40" y="44"/>
      <point x="106" y="-8"/>
    </contour>
    <contour>
      <point x="214" y="582" type="line"/>
      <point x="229" y="582" type="line"/>
      <point x="283" y="748" type="line"/>
      <point x="267" y="748" type="line"/>
    </contour>
  </outline>
</glyph>
<glyph name="iotatonos" format="2">
  <advance height="1000" width="181"/>
  <unicode hex="03AF"/>
  <outline>
    <contour>
      <point x="139" y="-3" type="curve" smooth="yes"/>
      <point x="151" y="-3"/>
      <point x="163" y="0"/>
      <point x="175" y="6" type="curve"/>
      <point x="175" y="22" type="line"/>
      <point x="163" y="15"/>
      <point x="153" y="12"/>
      <point x="140" y="12" type="curve" smooth="yes"/>
      <point x="106" y="12"/>
      <point x="96" y="32"/>
      <point x="96" y="72" type="curve" smooth="yes"/>
      <point x="96" y="525" type="line"/>
      <point x="80" y="525" type="line"/>
      <point x="80" y="71" type="line" smooth="yes"/>
      <point x="80" y="25"/>
      <point x="97" y="-3"/>
    </contour>
    <contour>
      <point x="69" y="582" type="line"/>
      <point x="84" y="582" type="line"/>
      <point x="138" y="748" type="line"/>
      <point x="122" y="748" type="line"/>
    </contour>
  </outline>
</glyph>
<glyph name="beta" format="2">
  <advance height="1000" width="509"/>
  <unicode hex="03B2"/>
  <outline>
    <contour>
      <point x="79.0" y="-197.0" type="curve"/>
      <point x="95.0" y="-197.0" type="line"/>
      <point x="90.0" y="-168.0"/>
      <point x="87.0" y="-130.0"/>
      <point x="87" y="-84" type="curve" smooth="yes"/>
      <point x="87" y="538" type="line" smooth="yes"/>
      <point x="87" y="658"/>
      <point x="156.0" y="733.0"/>
      <point x="260" y="733" type="curve" smooth="yes"/>
      <point x="363.0" y="733.0"/>
      <point x="419.0" y="665"/>
      <point x="420" y="569" type="curve" smooth="yes"/>
      <point x="420.0" y="482"/>
      <point x="341.0" y="417.19867549668874"/>
      <point x="221" y="412" type="curve"/>
      <point x="221" y="397" type="line"/>
      <point x="378.0" y="356"/>
      <point x="452.0" y="287"/>
      <point x="452" y="170" type="curve" smooth="yes"/>
      <point x="452" y="71"/>
      <point x="381.0" y="5.0"/>
      <point x="270" y="5" type="curve" smooth="yes"/>
      <point x="197" y="5.0"/>
      <point x="138" y="31.0"/>
      <point x="80" y="90" type="curve"/>
      <point x="80" y="68" type="line"/>
      <point x="137.8735632183908" y="16.0"/>
      <point x="198" y="-10.0"/>
      <point x="270" y="-10" type="curve" smooth="yes"/>
      <point x="390" y="-10.0"/>
      <point x="468" y="63"/>
      <point x="468" y="173" type="curve" smooth="yes"/>
      <point x="468.0" y="295"/>
      <point x="390.0" y="370"/>
      <point x="229" y="410" type="curve"/>
      <point x="227" y="399" type="line"/>
      <point x="353.0" y="404"/>
      <point x="436.0" y="478"/>
      <point x="436" y="570" type="curve" smooth="yes"/>
      <point x="436" y="685"/>
      <point x="365.0" y="748.0"/>
      <point x="260" y="748" type="curve" smooth="yes"/>
      <point x="147.0" y="748.0"/>
      <point x="72" y="667"/>
      <point x="72" y="538" type="curve" smooth="yes"/>
      <point x="72" y="-84.0" type="line" smooth="yes"/>
      <point x="72.0" y="-130.0"/>
      <point x="75" y="-168"/>
    </contour>
  </outline>
</glyph>
<glyph name="gamma" format="2">
  <advance height="1000" width="452"/>
  <unicode hex="03B3"/>
  <outline>
    <contour>
      <point x="231" y="-220" type="line"/>
      <point x="247" y="-220" type="line"/>
      <point x="247" y="8" type="line"/>
      <point x="387" y="351" type="line" smooth="yes"/>
      <point x="412" y="412"/>
      <point x="429" y="466"/>
      <point x="432" y="525" type="curve"/>
      <point x="417" y="525" type="line"/>
      <point x="415" y="473"/>
      <point x="397" y="417"/>
      <point x="373" y="357" type="curve" smooth="yes"/>
      <point x="240" y="30" type="line"/>
      <point x="39" y="525" type="line"/>
      <point x="20" y="525" type="line"/>
      <point x="231" y="8" type="line"/>
    </contour>
  </outline>
</glyph>
<glyph name="epsilon" format="2">
  <advance height="1000" width="434"/>
  <unicode hex="03B5"/>
  <outline>
    <contour>
      <point x="211" y="-8" type="curve" smooth="yes"/>
      <point x="279" y="-8"/>
      <point x="346" y="13"/>
      <point x="390" y="48" type="curve"/>
      <point x="390" y="66" type="line"/>
      <point x="348" y="30"/>
      <point x="280" y="7"/>
      <point x="211" y="7" type="curve" smooth="yes"/>
      <point x="115" y="7"/>
      <point x="55" y="54"/>
      <point x="55" y="129" type="curve" smooth="yes"/>
      <point x="55" y="211"/>
      <point x="132" y="262"/>
      <point x="248" y="262" type="curve" smooth="yes"/>
      <point x="331" y="262" type="line"/>
      <point x="331" y="277" type="line"/>
      <point x="246" y="277" type="line" smooth="yes"/>
      <point x="130" y="277"/>
      <point x="65" y="326"/>
      <point x="65" y="396" type="curve" smooth="yes"/>
      <point x="65" y="471"/>
      <point x="124" y="518"/>
      <point x="226" y="518" type="curve" smooth="yes"/>
      <point x="277" y="518"/>
      <point x="331" y="501"/>
      <point x="367" y="475" type="curve"/>
      <point x="367" y="493" type="line"/>
      <point x="328" y="519"/>
      <point x="275" y="533"/>
      <point x="226" y="533" type="curve" smooth="yes"/>
      <point x="114" y="533"/>
      <point x="49" y="481"/>
      <point x="49" y="395" type="curve" smooth="yes"/>
      <point x="49" y="328"/>
      <point x="103" y="282"/>
      <point x="182" y="270" type="curve"/>
      <point x="93" y="251"/>
      <point x="39" y="197"/>
      <point x="39" y="126" type="curve" smooth="yes"/>
      <point x="39" y="44"/>
      <point x="105" y="-8"/>
    </contour>
  </outline>
</glyph>
<glyph name="zeta" format="2">
  <advance height="1000" width="410"/>
  <unicode hex="03B6"/>
  <outline>
    <contour>
      <point x="371" y="-106" type="curve"/>
      <point x="388" y="-106" type="line"/>
      <point x="393" y="-92"/>
      <point x="397" y="-74"/>
      <point x="397" y="-49" type="curve" smooth="yes"/>
      <point x="397.0" y="0.5054945054945108"/>
      <point x="366" y="29"/>
      <point x="303" y="36" type="curve" smooth="yes"/>
      <point x="277" y="39" type="line" smooth="yes"/>
      <point x="127.0" y="56.0"/>
      <point x="80" y="117"/>
      <point x="80" y="212.0" type="curve" smooth="yes"/>
      <point x="80.0" y="358"/>
      <point x="166" y="476"/>
      <point x="410" y="720" type="curve"/>
      <point x="410" y="738" type="line"/>
      <point x="44" y="738" type="line"/>
      <point x="44" y="723" type="line"/>
      <point x="392" y="723" type="line"/>
      <point x="150" y="487"/>
      <point x="64.0" y="362"/>
      <point x="64" y="211.0" type="curve" smooth="yes"/>
      <point x="64" y="104"/>
      <point x="120.0" y="41.0"/>
      <point x="273" y="23" type="curve" smooth="yes"/>
      <point x="299" y="20" type="line" smooth="yes"/>
      <point x="353" y="14"/>
      <point x="381.0" y="-8.823529411764703"/>
      <point x="381" y="-50" type="curve" smooth="yes"/>
      <point x="381.0" y="-77.0344827586207"/>
      <point x="376.0" y="-92.48275862068965"/>
    </contour>
  </outline>
</glyph>
<glyph name="iota" format="2">
  <advance height="1000" width="182"/>
  <unicode hex="03B9"/>
  <outline>
    <contour>
      <point x="134" y="-3" type="curve" smooth="yes"/>
      <point x="146" y="-3"/>
      <point x="158" y="0"/>
      <point x="170" y="6" type="curve"/>
      <point x="170" y="22" type="line"/>
      <point x="158" y="15"/>
      <point x="148" y="12"/>
      <point x="135" y="12" type="curve" smooth="yes"/>
      <point x="101" y="12"/>
      <point x="91" y="32"/>
      <point x="91" y="72" type="curve" smooth="yes"/>
      <point x="91" y="525" type="line"/>
      <point x="75" y="525" type="line"/>
      <point x="75" y="71" type="line" smooth="yes"/>
      <point x="75" y="25"/>
      <point x="92" y="-3"/>
    </contour>
  </outline>
</glyph>
<glyph name="kappa" format="2">
  <advance height="1000" width="462"/>
  <unicode hex="03BA"/>
  <outline>
    <contour>
      <point x="75" y="0" type="line"/>
      <point x="91" y="0" type="line"/>
      <point x="91" y="266" type="line"/>
      <point x="403" y="0" type="line"/>
      <point x="429" y="0" type="line"/>
      <point x="108" y="272" type="line"/>
      <point x="401" y="525" type="line"/>
      <point x="377" y="525" type="line"/>
      <point x="91" y="277" type="line"/>
      <point x="91" y="525" type="line"/>
      <point x="75" y="525" type="line"/>
    </contour>
  </outline>
</glyph>
<glyph name="pi" format="2">
  <advance height="1000" width="567"/>
  <unicode hex="03C0"/>
  <outline>
    <contour>
      <point x="129" y="0" type="line"/>
      <point x="145" y="0" type="line"/>
      <point x="145" y="509" type="line"/>
      <point x="421" y="509" type="line"/>
      <point x="421" y="0" type="line"/>
      <point x="437" y="0" type="line"/>
      <point x="437" y="509" type="line"/>
      <point x="523" y="509" type="line"/>
      <point x="523" y="525" type="line"/>
      <point x="44" y="525" type="line"/>
      <point x="44" y="509" type="line"/>
      <point x="129" y="509" type="line"/>
    </contour>
  </outline>
</glyph>
<glyph name="tau" format="2">
  <advance height="1000" width="382"/>
  <unicode hex="03C4"/>
  <outline>
    <contour>
      <point x="249" y="-3" type="curve" smooth="yes"/>
      <point x="267" y="-3"/>
      <point x="286" y="1"/>
      <point x="304" y="10" type="curve"/>
      <point x="304" y="26" type="line"/>
      <point x="286" y="16"/>
      <point x="270" y="12"/>
      <point x="250" y="12" type="curve" smooth="yes"/>
      <point x="210" y="12"/>
      <point x="198" y="37"/>
      <point x="198" y="88" type="curve" smooth="yes"/>
      <point x="198" y="510" type="line"/>
      <point x="358" y="510" type="line"/>
      <point x="358" y="525" type="line"/>
      <point x="24" y="525" type="line"/>
      <point x="24" y="510" type="line"/>
      <point x="182" y="510" type="line"/>
      <point x="182" y="87" type="line" smooth="yes"/>
      <point x="182" y="31"/>
      <point x="201" y="-3"/>
    </contour>
  </outline>
</glyph>
<glyph name="chi" format="2">
  <advance height="1000" width="409"/>
  <unicode hex="03C7"/>
  <outline>
    <contour>
      <point x="32" y="-220" type="line"/>
      <point x="49" y="-220" type="line"/>
      <point x="367" y="462" type="line"/>
      <point x="350" y="462" type="line"/>
    </contour>
    <contour>
      <point x="360" y="-220" type="line"/>
      <point x="378" y="-220" type="line"/>
      <point x="59" y="462" type="line"/>
      <point x="41" y="462" type="line"/>
    </contour>
  </outline>
</glyph>
<glyph name="omega" format="2">
  <advance height="1000" width="886"/>
  <unicode hex="03C9"/>
  <outline>
    <contour>
      <point x="280" y="0" type="curve" smooth="yes"/>
      <point x="368" y="0"/>
      <point x="428" y="59"/>
      <point x="442" y="150" type="curve"/>
      <point x="462" y="55"/>
      <point x="523" y="0"/>
      <point x="602" y="0" type="curve" smooth="yes"/>
      <point x="720" y="0"/>
      <point x="780" y="80"/>
      <point x="780" y="244" type="curve" smooth="yes"/>
      <point x="780" y="352"/>
      <point x="755" y="453"/>
      <point x="712" y="525" type="curve"/>
      <point x="692" y="525" type="line"/>
      <point x="736" y="457"/>
      <point x="764" y="351"/>
      <point x="764" y="240" type="curve" smooth="yes"/>
      <point x="764" y="89"/>
      <point x="710" y="15"/>
      <point x="602" y="15" type="curve" smooth="yes"/>
      <point x="509" y="15"/>
      <point x="451" y="96"/>
      <point x="451" y="227" type="curve" smooth="yes"/>
      <point x="451" y="525" type="line"/>
      <point x="435" y="525" type="line"/>
      <point x="435" y="224" type="line" smooth="yes"/>
      <point x="435" y="87"/>
      <point x="372" y="15"/>
      <point x="281" y="15" type="curve" smooth="yes"/>
      <point x="176" y="15"/>
      <point x="122" y="89"/>
      <point x="122" y="238" type="curve" smooth="yes"/>
      <point x="122" y="345"/>
      <point x="149" y="450"/>
      <point x="193" y="525" type="curve"/>
      <point x="174" y="525" type="line"/>
      <point x="131" y="442"/>
      <point x="106" y="337"/>
      <point x="106" y="233" type="curve" smooth="yes"/>
      <point x="106" y="77"/>
      <point x="166" y="0"/>
    </contour>
  </outline>
</glyph>
<glyph name="omicrontonos" format="2">
  <advance height="1000" width="600"/>
  <unicode hex="03CC"/>
  <outline>
    <contour>
      <point x="300.0" y="-8.0" type="curve" smooth="yes"/>
      <point x="451.0" y="-8.0"/>
      <point x="552.0" y="100.0"/>
      <point x="552.0" y="261.0" type="curve" smooth="yes"/>
      <point x="552.0" y="422.0"/>
      <point x="451.0" y="533.0"/>
      <point x="300.0" y="533.0" type="curve" smooth="yes"/>
      <point x="149.0" y="533.0"/>
      <point x="48.0" y="422.0"/>
      <point x="48.0" y="261.0" type="curve" smooth="yes"/>
      <point x="48.0" y="100.0"/>
      <point x="149.0" y="-8.0"/>
    </contour>
    <contour>
      <point x="300.0" y="7.0" type="curve" smooth="yes"/>
      <point x="158.0" y="7.0"/>
      <point x="64.0" y="109.0"/>
      <point x="64.0" y="261.0" type="curve" smooth="yes"/>
      <point x="64.0" y="412.0"/>
      <point x="158.0" y="518.0"/>
      <point x="300.0" y="518.0" type="curve" smooth="yes"/>
      <point x="442.0" y="518.0"/>
      <point x="536.0" y="412.0"/>
      <point x="536.0" y="261.0" type="curve" smooth="yes"/>
      <point x="536.0" y="109.0"/>
      <point x="442.0" y="7.0"/>
    </contour>
    <contour>
      <point x="283" y="582" type="line"/>
      <point x="298" y="582" type="line"/>
      <point x="352" y="748" type="line"/>
      <point x="336" y="748" type="line"/>
    </contour>
  </outline>
</glyph>
<glyph name="upsilontonos" format="2">
  <advance height="1000" width="542"/>
  <unicode hex="03CD"/>
  <outline>
    <contour>
      <point x="280" y="-8" type="curve" smooth="yes"/>
      <point x="406.0" y="-8.0"/>
      <point x="469.0" y="95.0"/>
      <point x="469.0" y="294.0" type="curve" smooth="yes"/>
      <point x="469.0" y="379.0"/>
      <point x="459" y="458"/>
      <point x="441" y="525" type="curve"/>
      <point x="425" y="525" type="line"/>
      <point x="443" y="460"/>
      <point x="453.0" y="381.0"/>
      <point x="453.0" y="294.0" type="curve" smooth="yes"/>
      <point x="453.0" y="89.0"/>
      <point x="385.0" y="7.0"/>
      <point x="280" y="7" type="curve" smooth="yes"/>
      <point x="177.0" y="7.0"/>
      <point x="107.0" y="90.17535545023696"/>
      <point x="107" y="232" type="curve" smooth="yes"/>
      <point x="107" y="525" type="line"/>
      <point x="91.0" y="525.0" type="line"/>
      <point x="91.0" y="232.0" type="line" smooth="yes"/>
      <point x="91.0" y="94.29508196721312"/>
      <point x="156.0" y="-8.0"/>
    </contour>
    <contour>
      <point x="259" y="582" type="line"/>
      <point x="274" y="582" type="line"/>
      <point x="328" y="748" type="line"/>
      <point x="312" y="748" type="line"/>
    </contour>
  </outline>
</glyph>
<glyph name="IEgravecyrillic" format="2">
  <advance height="1000" width="515"/>
  <unicode hex="0400"/>
  <outline>
    <contour>
      <point x="88.0" y="0.0" type="line"/>
      <point x="455.0" y="0.0" type="line"/>
      <point x="455.0" y="15.0" type="line"/>
      <point x="104.0" y="15.0" type="line"/>
      <point x="104.0" y="366.0" type="line"/>
      <point x="424.0" y="366.0" type="line"/>
      <point x="424.0" y="381.0" type="line"/>
      <point x="104.0" y="381.0" type="line"/>
      <point x="104.0" y="725.0" type="line"/>
      <point x="441.0" y="725.0" type="line"/>
      <point x="441.0" y="740.0" type="line"/>
      <point x="88.0" y="740.0" type="line"/>
    </contour>
    <contour>
      <point x="282" y="787" type="line"/>
      <point x="301" y="787" type="line"/>
      <point x="202" y="913" type="line"/>
      <point x="182" y="913" type="line"/>
    </contour>
  </outline>
</glyph>
<glyph name="Iocyrillic" format="2">
  <advance height="1000" width="515"/>
  <unicode hex="0401"/>
  <outline>
    <contour>
      <point x="88.0" y="0.0" type="line"/>
      <point x="455.0" y="0.0" type="line"/>
      <point x="455.0" y="15.0" type="line"/>
      <point x="104.0" y="15.0" type="line"/>
      <point x="104.0" y="366.0" type="line"/>
      <point x="424.0" y="366.0" type="line"/>
      <point x="424.0" y="381.0" type="line"/>
      <point x="104.0" y="381.0" type="line"/>
      <point x="104.0" y="725.0" type="line"/>
      <point x="441.0" y="725.0" type="line"/>
      <point x="441.0" y="740.0" type="line"/>
      <point x="88.0" y="740.0" type="line"/>
    </contour>
    <contour>
      <point x="187" y="787" type="line"/>
      <point x="215" y="787" type="line"/>
      <point x="215" y="815" type="line"/>
      <point x="187" y="815" type="line"/>
    </contour>
    <contour>
      <point x="319" y="787" type="line"/>
      <point x="347" y="787" type="line"/>
      <point x="347" y="815" type="line"/>
      <point x="319" y="815" type="line"/>
    </contour>
  </outline>
</glyph>
<glyph name="Ecyrillic" format="2">
  <advance height="1000" width="708"/>
  <unicode hex="0404"/>
  <outline>
    <contour>
      <point x="658" y="64" type="line" name="hr00"/>
      <point x="590" y="26"/>
      <point x="513" y="8"/>
      <point x="436" y="8" type="curve" smooth="yes"/>
      <point x="220" y="8"/>
      <point x="76" y="153"/>
      <point x="76" y="370" type="curve" smooth="yes"/>
      <point x="76" y="588"/>
      <point x="220" y="734"/>
      <point x="436" y="734" type="curve" smooth="yes"/>
      <point x="511" y="734"/>
      <point x="584" y="721"/>
      <point x="651" y="691" type="curve"/>
      <point x="651" y="708" type="line"/>
      <point x="581" y="738"/>
      <point x="514" y="750"/>
      <point x="436" y="750" type="curve" smooth="yes"/>
      <point x="211" y="750"/>
      <point x="60" y="599"/>
      <point x="60" y="370" type="curve" smooth="yes"/>
      <point x="60" y="143"/>
      <point x="211" y="-8"/>
      <point x="436" y="-8" type="curve" smooth="yes"/>
      <point x="517" y="-8"/>
      <point x="588" y="10"/>
      <point x="658" y="45" type="curve"/>
    </contour>
    <contour>
      <point x="519" y="381" type="line"/>
      <point x="70" y="381" type="line"/>
      <point x="70" y="366" type="line"/>
      <point x="519" y="366" type="line"/>
    </contour>
  </outline>
</glyph>
<glyph name="Njecyrillic" format="2">
  <advance height="1000" width="1056"/>
  <unicode hex="040A"/>
  <outline>
    <contour>
      <point x="579" y="0" type="line" name="hr00"/>
      <point x="755" y="0" type="line" smooth="yes"/>
      <point x="906" y="0"/>
      <point x="998" y="88"/>
      <point x="998" y="220" type="curve" smooth="yes"/>
      <point x="998" y="350"/>
      <point x="906" y="433"/>
      <point x="755" y="433" type="curve" smooth="yes"/>
      <point x="595" y="433" type="line"/>
      <point x="595" y="740" type="line"/>
      <point x="579" y="740" type="line"/>
      <point x="579" y="385" type="line"/>
      <point x="104" y="385" type="line"/>
      <point x="104" y="740" type="line"/>
      <point x="88" y="740" type="line"/>
      <point x="88" y="0" type="line"/>
      <point x="104" y="0" type="line"/>
      <point x="104" y="370" type="line"/>
      <point x="579" y="370" type="line"/>
    </contour>
    <contour>
      <point x="595" y="418" type="line"/>
      <point x="755" y="418" type="line" smooth="yes"/>
      <point x="896" y="418"/>
      <point x="982" y="340"/>
      <point x="982" y="220" type="curve" smooth="yes"/>
      <point x="982" y="98"/>
      <point x="896" y="15"/>
      <point x="755" y="15" type="curve" smooth="yes"/>
      <point x="595" y="15" type="line"/>
    </contour>
  </outline>
</glyph>
<glyph name="Tshecyrillic" format="2">
  <advance height="1000" width="823"/>
  <unicode hex="040B"/>
  <outline>
    <contour>
      <point x="590" y="740" type="line"/>
      <point x="20" y="740" type="line"/>
      <point x="20" y="725" type="line"/>
      <point x="292" y="725" type="line"/>
      <point x="292" y="0" type="line"/>
      <point x="308" y="0" type="line"/>
      <point x="308" y="373" type="line"/>
      <point x="364" y="423"/>
      <point x="437" y="449"/>
      <point x="537" y="449" type="curve" smooth="yes"/>
      <point x="671" y="449"/>
      <point x="743" y="394"/>
      <point x="743" y="254" type="curve" smooth="yes"/>
      <point x="743" y="0" type="line"/>
      <point x="759" y="0" type="line"/>
      <point x="759" y="254" type="line" smooth="yes"/>
      <point x="759" y="404"/>
      <point x="681" y="465"/>
      <point x="537" y="465" type="curve" smooth="yes"/>
      <point x="433" y="465"/>
      <point x="358" y="435"/>
      <point x="308" y="391" type="curve"/>
      <point x="308" y="725" type="line"/>
      <point x="590" y="725" type="line"/>
    </contour>
  </outline>
</glyph>
<glyph name="Igravecyrillic" format="2">
  <advance height="1000" width="730"/>
  <unicode hex="040D"/>
  <outline>
    <contour>
      <point x="88" y="0" type="line"/>
      <point x="104" y="0" type="line"/>
      <point x="626" y="715" type="line"/>
      <point x="626" y="0" type="line"/>
      <point x="642" y="0" type="line"/>
      <point x="642" y="740" type="line"/>
      <point x="626" y="740" type="line"/>
      <point x="104" y="25" type="line"/>
      <point x="104" y="740" type="line"/>
      <point x="88" y="740" type="line"/>
    </contour>
    <contour>
      <point x="349" y="787" type="line"/>
      <point x="368" y="787" type="line"/>
      <point x="269" y="913" type="line"/>
      <point x="249" y="913" type="line"/>
    </contour>
  </outline>
</glyph>
<glyph name="Ushortcyrillic" format="2">
  <advance height="1000" width="621"/>
  <unicode hex="040E"/>
  <outline>
    <contour>
      <point x="170" y="-8" type="curve" smooth="yes"/>
      <point x="246" y="-8"/>
      <point x="305" y="24"/>
      <point x="359" y="156" type="curve" smooth="yes"/>
      <point x="599" y="740" type="line"/>
      <point x="581" y="740" type="line"/>
      <point x="360" y="201" type="line"/>
      <point x="45" y="740" type="line"/>
      <point x="26" y="740" type="line"/>
      <point x="352" y="183" type="line"/>
      <point x="344" y="163" type="line" smooth="yes"/>
      <point x="295" y="40"/>
      <point x="243" y="8"/>
      <point x="170" y="8" type="curve" smooth="yes"/>
      <point x="132" y="8"/>
      <point x="102" y="16"/>
      <point x="78" y="28" type="curve"/>
      <point x="78" y="10" type="line"/>
      <point x="104" y="-2"/>
      <point x="134" y="-8"/>
    </contour>
    <contour>
      <point x="227" y="948" type="curve"/>
      <point x="212" y="948" type="line"/>
      <point x="212" y="868"/>
      <point x="258" y="827"/>
      <point x="323" y="827" type="curve" smooth="yes"/>
      <point x="388" y="827"/>
      <point x="434" y="868"/>
      <point x="434" y="948" type="curve"/>
      <point x="419" y="948" type="line"/>
      <point x="419" y="881"/>
      <point x="380" y="841"/>
      <point x="323" y="841" type="curve" smooth="yes"/>
      <point x="266" y="841"/>
      <point x="227" y="881"/>
    </contour>
  </outline>
</glyph>
<glyph name="Decyrillic" format="2">
  <advance height="1000" width="769"/>
  <unicode hex="0414"/>
  <outline>
    <contour>
      <point x="629" y="740" type="line"/>
      <point x="195" y="740" type="line"/>
      <point x="195" y="584" type="line" smooth="yes"/>
      <point x="195" y="234"/>
      <point x="151" y="105"/>
      <point x="95" y="15" type="curve"/>
      <point x="22" y="15" type="line"/>
      <point x="22" y="-143" type="line"/>
      <point x="38" y="-143" type="line"/>
      <point x="38" y="0" type="line"/>
      <point x="715" y="0" type="line"/>
      <point x="715" y="-143" type="line"/>
      <point x="731" y="-143" type="line"/>
      <point x="731" y="15" type="line"/>
      <point x="629" y="15" type="line"/>
    </contour>
    <contour>
      <point x="613" y="15" type="line"/>
      <point x="116" y="15" type="line"/>
      <point x="172" y="117"/>
      <point x="211" y="236"/>
      <point x="211" y="588" type="curve" smooth="yes"/>
      <point x="211" y="725" type="line"/>
      <point x="613" y="725" type="line"/>
    </contour>
  </outline>
</glyph>
<glyph name="Zhecyrillic" format="2">
  <advance height="1000" width="902"/>
  <unicode hex="0416"/>
  <outline>
    <contour>
      <point x="443" y="0" type="line"/>
      <point x="459" y="0" type="line"/>
      <point x="459" y="378" type="line"/>
      <point x="547" y="378" type="line"/>
      <point x="837" y="0" type="line"/>
      <point x="858" y="0" type="line"/>
      <point x="561" y="386" type="line"/>
      <point x="842" y="740" type="line"/>
      <point x="822" y="740" type="line"/>
      <point x="547" y="393" type="line"/>
      <point x="459" y="393" type="line"/>
      <point x="459" y="740" type="line"/>
      <point x="443" y="740" type="line"/>
      <point x="443" y="393" type="line"/>
      <point x="355" y="393" type="line"/>
      <point x="80" y="740" type="line"/>
      <point x="60" y="740" type="line"/>
      <point x="341" y="386" type="line"/>
      <point x="44" y="0" type="line"/>
      <point x="65" y="0" type="line"/>
      <point x="355" y="378" type="line"/>
      <point x="443" y="378" type="line"/>
    </contour>
  </outline>
</glyph>
<glyph name="Iicyrillic" format="2">
  <advance height="1000" width="730"/>
  <unicode hex="0418"/>
  <outline>
    <contour>
      <point x="88" y="0" type="line"/>
      <point x="104" y="0" type="line"/>
      <point x="626" y="715" type="line"/>
      <point x="626" y="0" type="line"/>
      <point x="642" y="0" type="line"/>
      <point x="642" y="740" type="line"/>
      <point x="626" y="740" type="line"/>
      <point x="104" y="25" type="line"/>
      <point x="104" y="740" type="line"/>
      <point x="88" y="740" type="line"/>
    </contour>
  </outline>
</glyph>
<glyph name="Kacyrillic" format="2">
  <advance height="1000" width="547"/>
  <unicode hex="041A"/>
  <outline>
    <contour>
      <point x="88" y="0" type="line"/>
      <point x="104" y="0" type="line"/>
      <point x="104" y="378" type="line"/>
      <point x="192" y="378" type="line"/>
      <point x="482" y="0" type="line"/>
      <point x="503" y="0" type="line"/>
      <point x="206" y="386" type="line"/>
      <point x="487" y="740" type="line"/>
      <point x="467" y="740" type="line"/>
      <point x="192" y="393" type="line"/>
      <point x="104" y="393" type="line"/>
      <point x="104" y="740" type="line"/>
      <point x="88" y="740" type="line"/>
    </contour>
  </outline>
</glyph>
<glyph name="Ercyrillic" format="2">
  <advance height="1000" width="485"/>
  <unicode hex="0420"/>
  <outline>
    <contour>
      <point x="88.0" y="0.0" type="line"/>
      <point x="104.0" y="0.0" type="line"/>
      <point x="104.0" y="313.0" type="line"/>
      <point x="186.0" y="313.0" type="line" smooth="yes"/>
      <point x="335.0" y="313.0"/>
      <point x="433.0" y="397.0"/>
      <point x="433.0" y="524.0" type="curve" smooth="yes"/>
      <point x="433.0" y="654.0"/>
      <point x="335.0" y="740.0"/>
      <point x="186.0" y="740.0" type="curve" smooth="yes"/>
      <point x="88.0" y="740.0" type="line"/>
    </contour>
    <contour>
      <point x="104.0" y="328.0" type="line"/>
      <point x="104.0" y="725.0" type="line"/>
      <point x="184.0" y="725.0" type="line" smooth="yes"/>
      <point x="324.0" y="725.0"/>
      <point x="417.0" y="644.0"/>
      <point x="417.0" y="524.0" type="curve" smooth="yes"/>
      <point x="417.0" y="407.0"/>
      <point x="324.0" y="328.0"/>
      <point x="186.0" y="328.0" type="curve" smooth="yes"/>
    </contour>
  </outline>
</glyph>
<glyph name="Ucyrillic" format="2">
  <advance height="1000" width="621"/>
  <unicode hex="0423"/>
  <outline>
    <contour>
      <point x="170" y="-8" type="curve" smooth="yes"/>
      <point x="246" y="-8"/>
      <point x="305" y="24"/>
      <point x="359" y="156" type="curve" smooth="yes"/>
      <point x="599" y="740" type="line"/>
      <point x="581" y="740" type="line"/>
      <point x="360" y="201" type="line"/>
      <point x="45" y="740" type="line"/>
      <point x="26" y="740" type="line"/>
      <point x="352" y="183" type="line"/>
      <point x="344" y="163" type="line" smooth="yes"/>
      <point x="295" y="40"/>
      <point x="243" y="8"/>
      <point x="170" y="8" type="curve" smooth="yes"/>
      <point x="132" y="8"/>
      <point x="102" y="16"/>
      <point x="78" y="28" type="curve"/>
      <point x="78" y="10" type="line"/>
      <point x="104" y="-2"/>
      <point x="134" y="-8"/>
    </contour>
  </outline>
</glyph>
<glyph name="Khacyrillic" format="2">
  <advance height="1000" width="625"/>
  <unicode hex="0425"/>
  <outline>
    <contour>
      <point x="64.0" y="0.0" type="line"/>
      <point x="312.0" y="366.0" type="line"/>
      <point x="561.0" y="0.0" type="line"/>
      <point x="581.0" y="0.0" type="line"/>
      <point x="322.0" y="379.0" type="line"/>
      <point x="566.0" y="740.0" type="line"/>
      <point x="546.0" y="740.0" type="line"/>
      <point x="313.0" y="391.0" type="line"/>
      <point x="80.0" y="740.0" type="line"/>
      <point x="60.0" y="740.0" type="line"/>
      <point x="304.0" y="379.0" type="line"/>
      <point x="44.0" y="0.0" type="line"/>
    </contour>
  </outline>
</glyph>
<glyph name="Tsecyrillic" format="2">
  <advance height="1000" width="735"/>
  <unicode hex="0426"/>
  <outline>
    <contour>
      <point x="681" y="0" type="line"/>
      <point x="681" y="-143" type="line"/>
      <point x="697" y="-143" type="line"/>
      <point x="697" y="15" type="line"/>
      <point x="595" y="15" type="line"/>
      <point x="595" y="740" type="line"/>
      <point x="579" y="740" type="line"/>
      <point x="579" y="15" type="line"/>
      <point x="104" y="15" type="line"/>
      <point x="104" y="740" type="line"/>
      <point x="88" y="740" type="line"/>
      <point x="88" y="0" type="line"/>
    </contour>
  </outline>
</glyph>
<glyph name="Shacyrillic" format="2">
  <advance height="1000" width="958"/>
  <unicode hex="0428"/>
  <outline>
    <contour>
      <point x="88" y="0" type="line"/>
      <point x="870" y="0" type="line"/>
      <point x="870" y="740" type="line"/>
      <point x="854" y="740" type="line"/>
      <point x="854" y="15" type="line"/>
      <point x="487" y="15" type="line"/>
      <point x="487" y="740" type="line"/>
      <point x="471" y="740" type="line"/>
      <point x="471" y="15" type="line"/>
      <point x="104" y="15" type="line"/>
      <point x="104" y="740" type="line"/>
      <point x="88" y="740" type="line"/>
    </contour>
  </outline>
</glyph>
<glyph name="Shchacyrillic" format="2">
  <advance height="1000" width="1010"/>
  <unicode hex="0429"/>
  <outline>
    <contour>
      <point x="88" y="0" type="line"/>
      <point x="956" y="0" type="line"/>
      <point x="956" y="-143" type="line"/>
      <point x="972" y="-143" type="line"/>
      <point x="972" y="15" type="line"/>
      <point x="870" y="15" type="line"/>
      <point x="870" y="740" type="line"/>
      <point x="854" y="740" type="line"/>
      <point x="854" y="15" type="line"/>
      <point x="487" y="15" type="line"/>
      <point x="487" y="740" type="line"/>
      <point x="471" y="740" type="line"/>
      <point x="471" y="15" type="line"/>
      <point x="104" y="15" type="line"/>
      <point x="104" y="740" type="line"/>
      <point x="88" y="740" type="line"/>
    </contour>
  </outline>
</glyph>
<glyph name="Softsigncyrillic" format="2">
  <advance height="1000" width="575"/>
  <unicode hex="042C"/>
  <outline>
    <contour>
      <point x="88" y="0" type="line"/>
      <point x="274" y="0" type="line" smooth="yes"/>
      <point x="425" y="0"/>
      <point x="517" y="88"/>
      <point x="517" y="220" type="curve" smooth="yes"/>
      <point x="517" y="350"/>
      <point x="425" y="433"/>
      <point x="274" y="433" type="curve" smooth="yes"/>
      <point x="104" y="433" type="line"/>
      <point x="104" y="740" type="line"/>
      <point x="88" y="740" type="line"/>
    </contour>
    <contour>
      <point x="104" y="418" type="line"/>
      <point x="274" y="418" type="line" smooth="yes"/>
      <point x="415" y="418"/>
      <point x="501" y="340"/>
      <point x="501" y="220" type="curve" smooth="yes"/>
      <point x="501" y="98"/>
      <point x="415" y="15"/>
      <point x="274" y="15" type="curve" smooth="yes"/>
      <point x="104" y="15" type="line"/>
    </contour>
  </outline>
</glyph>
<glyph name="becyrillic" format="2">
  <advance height="1000" width="572"/>
  <unicode hex="0431"/>
  <outline>
    <contour>
      <point x="497" y="736" type="line"/>
      <point x="497" y="751" type="line"/>
      <point x="369" y="731" type="line" smooth="yes"/>
      <point x="255" y="713"/>
      <point x="195" y="686"/>
      <point x="147" y="638" type="curve" smooth="yes"/>
      <point x="83" y="574"/>
      <point x="50" y="477"/>
      <point x="50" y="269" type="curve" smooth="yes"/>
      <point x="50" y="93"/>
      <point x="139" y="-8"/>
      <point x="287" y="-8" type="curve" smooth="yes"/>
      <point x="429" y="-8"/>
      <point x="524" y="97"/>
      <point x="524" y="257" type="curve" smooth="yes"/>
      <point x="524" y="421"/>
      <point x="439" y="525"/>
      <point x="293" y="525" type="curve" smooth="yes"/>
      <point x="175" y="525"/>
      <point x="94" y="456"/>
      <point x="68" y="360" type="curve"/>
      <point x="79" y="500"/>
      <point x="104" y="575"/>
      <point x="156" y="627" type="curve" smooth="yes"/>
      <point x="200" y="671"/>
      <point x="255" y="698"/>
      <point x="369" y="716" type="curve" smooth="yes"/>
    </contour>
    <contour>
      <point x="293" y="510" type="curve" smooth="yes"/>
      <point x="430" y="510"/>
      <point x="508" y="411"/>
      <point x="508" y="257" type="curve" smooth="yes"/>
      <point x="508" y="107"/>
      <point x="420" y="7"/>
      <point x="287" y="7" type="curve" smooth="yes"/>
      <point x="146" y="7"/>
      <point x="66" y="108"/>
      <point x="66" y="260" type="curve" smooth="yes"/>
      <point x="66" y="409"/>
      <point x="153" y="510"/>
    </contour>
  </outline>
</glyph>
<glyph name="gecyrillic" format="2">
  <advance height="1000" width="382"/>
  <unicode hex="0433"/>
  <outline>
    <contour>
      <point x="76" y="0" type="line"/>
      <point x="92" y="0" type="line"/>
      <point x="92" y="510" type="line"/>
      <point x="366" y="510" type="line"/>
      <point x="366" y="525" type="line"/>
      <point x="76" y="525" type="line"/>
    </contour>
  </outline>
</glyph>
<glyph name="zecyrillic" format="2">
  <advance height="1000" width="446"/>
  <unicode hex="0437"/>
  <outline>
    <contour>
      <point x="46" y="59" type="curve"/>
      <point x="46" y="42" type="line"/>
      <point x="96" y="10"/>
      <point x="151" y="-7"/>
      <point x="211" y="-7" type="curve" smooth="yes"/>
      <point x="323" y="-7"/>
      <point x="390" y="45"/>
      <point x="390" y="135" type="curve" smooth="yes"/>
      <point x="390" y="211"/>
      <point x="334" y="258"/>
      <point x="258" y="270" type="curve"/>
      <point x="322" y="284"/>
      <point x="378" y="327"/>
      <point x="378" y="398" type="curve" smooth="yes"/>
      <point x="378" y="484"/>
      <point x="317" y="533"/>
      <point x="211" y="533" type="curve" smooth="yes"/>
      <point x="151" y="533"/>
      <point x="90" y="515"/>
      <point x="46" y="487" type="curve"/>
      <point x="46" y="470" type="line"/>
      <point x="96" y="502"/>
      <point x="155" y="518"/>
      <point x="211" y="518" type="curve" smooth="yes"/>
      <point x="317" y="518"/>
      <point x="362" y="468"/>
      <point x="362" y="398" type="curve" smooth="yes"/>
      <point x="362" y="326"/>
      <point x="294" y="277"/>
      <point x="206" y="277" type="curve" smooth="yes"/>
      <point x="138" y="277" type="line"/>
      <point x="138" y="262" type="line"/>
      <point x="206" y="262" type="line" smooth="yes"/>
      <point x="310" y="262"/>
      <point x="374" y="213"/>
      <point x="374" y="135" type="curve" smooth="yes"/>
      <point x="374" y="56"/>
      <point x="313" y="8"/>
      <point x="211" y="8" type="curve" smooth="yes"/>
      <point x="151" y="8"/>
      <point x="98" y="25"/>
    </contour>
  </outline>
</glyph>
<glyph name="iicyrillic" format="2">
  <advance height="1000" width="527"/>
  <unicode hex="0438"/>
  <outline>
    <contour>
      <point x="76" y="0" type="line"/>
      <point x="92" y="0" type="line"/>
      <point x="435" y="498" type="line"/>
      <point x="435" y="0" type="line"/>
      <point x="451" y="0" type="line"/>
      <point x="451" y="525" type="line"/>
      <point x="435" y="525" type="line"/>
      <point x="92" y="27" type="line"/>
      <point x="92" y="525" type="line"/>
      <point x="76" y="525" type="line"/>
    </contour>
  </outline>
</glyph>
<glyph name="kacyrillic" format="2">
  <advance height="1000" width="444"/>
  <unicode hex="043A"/>
  <outline>
    <contour>
      <point x="176" y="275" type="line"/>
      <point x="406" y="525" type="line"/>
      <point x="386" y="525" type="line"/>
      <point x="162" y="281" type="line"/>
      <point x="92" y="281" type="line"/>
      <point x="92" y="525" type="line"/>
      <point x="76" y="525" type="line"/>
      <point x="76" y="0" type="line"/>
      <point x="92" y="0" type="line"/>
      <point x="92" y="266" type="line"/>
      <point x="162" y="266" type="line"/>
      <point x="399" y="0" type="line"/>
      <point x="420" y="0" type="line"/>
    </contour>
  </outline>
</glyph>
<glyph name="encyrillic" format="2">
  <advance height="1000" width="519"/>
  <unicode hex="043D"/>
  <outline>
    <contour>
      <point x="76" y="0" type="line"/>
      <point x="92" y="0" type="line"/>
      <point x="92" y="260" type="line"/>
      <point x="427" y="260" type="line"/>
      <point x="427" y="0" type="line"/>
      <point x="443" y="0" type="line"/>
      <point x="443" y="525" type="line"/>
      <point x="427" y="525" type="line"/>
      <point x="427" y="275" type="line"/>
      <point x="92" y="275" type="line"/>
      <point x="92" y="525" type="line"/>
      <point x="76" y="525" type="line"/>
    </contour>
  </outline>
</glyph>
<glyph name="escyrillic" format="2">
  <advance height="1000" width="507"/>
  <unicode hex="0441"/>
  <outline>
    <contour>
      <point x="301.0" y="-7.0" type="curve" smooth="yes"/>
      <point x="357.0" y="-7.0"/>
      <point x="417.0" y="13.0"/>
      <point x="463.0" y="42.0" type="curve"/>
      <point x="463.0" y="59.0" type="line"/>
      <point x="414.0" y="28.0"/>
      <point x="352.0" y="8.0"/>
      <point x="301.0" y="8.0" type="curve" smooth="yes"/>
      <point x="160.0" y="8.0"/>
      <point x="64.0" y="108.0"/>
      <point x="64.0" y="260.0" type="curve" smooth="yes"/>
      <point x="64.0" y="412.0"/>
      <point x="156.0" y="518.0"/>
      <point x="294.0" y="518.0" type="curve" smooth="yes"/>
      <point x="350.0" y="518.0"/>
      <point x="403.0" y="500.0"/>
      <point x="463.0" y="470.0" type="curve"/>
      <point x="463.0" y="487.0" type="line"/>
      <point x="408.0" y="515.0"/>
      <point x="352.0" y="533.0"/>
      <point x="294.0" y="533.0" type="curve" smooth="yes"/>
      <point x="147.0" y="533.0"/>
      <point x="48.0" y="422.0"/>
      <point x="48.0" y="260.0" type="curve" smooth="yes"/>
      <point x="48.0" y="99.0"/>
      <point x="149.0" y="-7.0"/>
    </contour>
  </outline>
</glyph>
<glyph name="tsecyrillic" format="2">
  <advance height="1000" width="557"/>
  <unicode hex="0446"/>
  <outline>
    <contour>
      <point x="435" y="525" type="line"/>
      <point x="419" y="525" type="line"/>
      <point x="419" y="15" type="line"/>
      <point x="92" y="15" type="line"/>
      <point x="92" y="525" type="line"/>
      <point x="76" y="525" type="line"/>
      <point x="76" y="0" type="line"/>
      <point x="509" y="0" type="line"/>
      <point x="509" y="-128" type="line"/>
      <point x="525" y="-128" type="line"/>
      <point x="525" y="15" type="line"/>
      <point x="435" y="15" type="line"/>
    </contour>
  </outline>
</glyph>
<glyph name="checyrillic" format="2">
  <advance height="1000" width="483"/>
  <unicode hex="0447"/>
  <outline>
    <contour>
      <point x="391" y="0" type="line"/>
      <point x="407" y="0" type="line"/>
      <point x="407" y="525" type="line"/>
      <point x="391" y="525" type="line"/>
      <point x="391" y="259" type="line"/>
      <point x="355" y="221"/>
      <point x="300" y="198"/>
      <point x="222" y="198" type="curve" smooth="yes"/>
      <point x="116" y="198"/>
      <point x="68" y="236"/>
      <point x="68" y="340" type="curve" smooth="yes"/>
      <point x="68" y="525" type="line"/>
      <point x="52" y="525" type="line"/>
      <point x="52" y="340" type="line" smooth="yes"/>
      <point x="52" y="224"/>
      <point x="106" y="182"/>
      <point x="222" y="182" type="curve" smooth="yes"/>
      <point x="302" y="182"/>
      <point x="359" y="206"/>
      <point x="391" y="240" type="curve"/>
    </contour>
  </outline>
</glyph>
<glyph name="yericyrillic" format="2">
  <advance height="1000" width="634"/>
  <unicode hex="044B"/>
  <outline>
    <contour>
      <point x="542" y="0" type="line"/>
      <point x="558" y="0" type="line"/>
      <point x="558" y="525" type="line"/>
      <point x="542" y="525" type="line"/>
    </contour>
    <contour>
      <point x="76" y="0" type="line"/>
      <point x="250" y="0" type="line" smooth="yes"/>
      <point x="358" y="0"/>
      <point x="427" y="67"/>
      <point x="427" y="157" type="curve" smooth="yes"/>
      <point x="427" y="251"/>
      <point x="358" y="312"/>
      <point x="250" y="312" type="curve" smooth="yes"/>
      <point x="92" y="312" type="line"/>
      <point x="92" y="525" type="line"/>
      <point x="76" y="525" type="line"/>
    </contour>
    <contour>
      <point x="92" y="297" type="line"/>
      <point x="250" y="297" type="line" smooth="yes"/>
      <point x="350" y="297"/>
      <point x="411" y="239"/>
      <point x="411" y="157" type="curve" smooth="yes"/>
      <point x="411" y="77"/>
      <point x="350" y="15"/>
      <point x="250" y="15" type="curve" smooth="yes"/>
      <point x="92" y="15" type="line"/>
    </contour>
  </outline>
</glyph>
<glyph name="ereversedcyrillic" format="2">
  <advance height="1000" width="509"/>
  <unicode hex="044D"/>
  <outline>
    <contour>
      <point x="46" y="59" type="curve"/>
      <point x="46" y="42" type="line"/>
      <point x="96" y="10"/>
      <point x="153" y="-7"/>
      <point x="215" y="-7" type="curve" smooth="yes"/>
      <point x="360" y="-7"/>
      <point x="461" y="98"/>
      <point x="461" y="265" type="curve" smooth="yes"/>
      <point x="461" y="432"/>
      <point x="360" y="533"/>
      <point x="215" y="533" type="curve" smooth="yes"/>
      <point x="147" y="533"/>
      <point x="90" y="515"/>
      <point x="46" y="487" type="curve"/>
      <point x="46" y="470" type="line"/>
      <point x="96" y="502"/>
      <point x="151" y="518"/>
      <point x="215" y="518" type="curve" smooth="yes"/>
      <point x="351" y="518"/>
      <point x="445" y="422"/>
      <point x="445" y="265" type="curve" smooth="yes"/>
      <point x="445" y="108"/>
      <point x="351" y="8"/>
      <point x="215" y="8" type="curve" smooth="yes"/>
      <point x="153" y="8"/>
      <point x="98" y="25"/>
    </contour>
    <contour>
      <point x="138" y="262" type="line"/>
      <point x="451" y="262" type="line"/>
      <point x="451" y="277" type="line"/>
      <point x="138" y="277" type="line"/>
    </contour>
  </outline>
</glyph>
<glyph name="iucyrillic" format="2">
  <advance height="1000" width="756"/>
  <unicode hex="044E"/>
  <outline>
    <contour>
      <point x="76" y="0" type="line"/>
      <point x="92" y="0" type="line"/>
      <point x="92" y="260" type="line"/>
      <point x="224" y="260" type="line"/>
      <point x="224" y="275" type="line"/>
      <point x="92" y="275" type="line"/>
      <point x="92" y="525" type="line"/>
      <point x="76" y="525" type="line"/>
    </contour>
    <contour>
      <point x="216" y="261" type="curve" smooth="yes"/>
      <point x="216" y="97"/>
      <point x="312" y="-8"/>
      <point x="462" y="-8" type="curve" smooth="yes"/>
      <point x="612" y="-8"/>
      <point x="708" y="97"/>
      <point x="708" y="261" type="curve" smooth="yes"/>
      <point x="708" y="425"/>
      <point x="612" y="533"/>
      <point x="462" y="533" type="curve" smooth="yes"/>
      <point x="312" y="533"/>
      <point x="216" y="425"/>
    </contour>
    <contour>
      <point x="232" y="261" type="curve" smooth="yes"/>
      <point x="232" y="415"/>
      <point x="322" y="518"/>
      <point x="462" y="518" type="curve" smooth="yes"/>
      <point x="602" y="518"/>
      <point x="692" y="415"/>
      <point x="692" y="261" type="curve" smooth="yes"/>
      <point x="692" y="107"/>
      <point x="602" y="7"/>
      <point x="462" y="7" type="curve" smooth="yes"/>
      <point x="322" y="7"/>
      <point x="232" y="107"/>
    </contour>
  </outline>
</glyph>
<glyph name="gjecyrillic" format="2">
  <advance height="1000" width="382"/>
  <unicode hex="0453"/>
  <outline>
    <contour>
      <point x="76" y="0" type="line"/>
      <point x="92" y="0" type="line"/>
      <point x="92" y="510" type="line"/>
      <point x="366" y="510" type="line"/>
      <point x="366" y="525" type="line"/>
      <point x="76" y="525" type="line"/>
    </contour>
    <contour>
      <point x="209" y="582" type="line"/>
      <point x="309" y="708" type="line"/>
      <point x="289" y="708" type="line"/>
      <point x="190" y="582" type="line"/>
    </contour>
  </outline>
</glyph>
<glyph name="ecyrillic" format="2">
  <advance height="1000" width="509"/>
  <unicode hex="0454"/>
  <outline>
    <contour>
      <point x="463" y="470" type="curve"/>
      <point x="463" y="487" type="line"/>
      <point x="408" y="515"/>
      <point x="352" y="533"/>
      <point x="294" y="533" type="curve" smooth="yes"/>
      <point x="147" y="533"/>
      <point x="48" y="422"/>
      <point x="48" y="260" type="curve" smooth="yes"/>
      <point x="48" y="99"/>
      <point x="149" y="-7"/>
      <point x="301" y="-7" type="curve" smooth="yes"/>
      <point x="357" y="-7"/>
      <point x="417" y="13"/>
      <point x="463" y="42" type="curve"/>
      <point x="463" y="59" type="line"/>
      <point x="414" y="28"/>
      <point x="352" y="8"/>
      <point x="301" y="8" type="curve" smooth="yes"/>
      <point x="160" y="8"/>
      <point x="64" y="108"/>
      <point x="64" y="260" type="curve" smooth="yes"/>
      <point x="64" y="412"/>
      <point x="156" y="518"/>
      <point x="294" y="518" type="curve" smooth="yes"/>
      <point x="350" y="518"/>
      <point x="403" y="500"/>
    </contour>
    <contour>
      <point x="371" y="277" type="line"/>
      <point x="58" y="277" type="line"/>
      <point x="58" y="262" type="line"/>
      <point x="371" y="262" type="line"/>
    </contour>
  </outline>
</glyph>
<glyph name="ljecyrillic" format="2">
  <advance width="800"/>
  <unicode hex="0459"/>
  <outline>
    <contour>
      <point x="33" y="-8" type="curve" smooth="yes"/>
      <point x="63" y="-8"/>
      <point x="83" y="-1"/>
      <point x="101" y="17" type="curve" smooth="yes"/>
      <point x="137" y="53"/>
      <point x="153" y="113"/>
      <point x="153" y="423" type="curve" smooth="yes"/>
      <point x="153" y="510" type="line"/>
      <point x="421" y="510" type="line"/>
      <point x="421" y="0" type="line"/>
      <point x="585" y="0" type="line" smooth="yes"/>
      <point x="693" y="0"/>
      <point x="762" y="67"/>
      <point x="762" y="157" type="curve" smooth="yes"/>
      <point x="762" y="251"/>
      <point x="693" y="312"/>
      <point x="585" y="312" type="curve" smooth="yes"/>
      <point x="437" y="312" type="line"/>
      <point x="437" y="525" type="line"/>
      <point x="137" y="525" type="line"/>
      <point x="137" y="419" type="line" smooth="yes"/>
      <point x="137" y="111"/>
      <point x="120" y="59"/>
      <point x="90" y="29" type="curve" smooth="yes"/>
      <point x="74" y="13"/>
      <point x="60" y="8"/>
      <point x="35" y="8" type="curve" smooth="yes"/>
      <point x="25" y="8"/>
      <point x="14" y="9"/>
      <point x="6" y="11" type="curve"/>
      <point x="6" y="-5" type="line"/>
      <point x="14" y="-7"/>
      <point x="25" y="-8"/>
    </contour>
    <contour>
      <point x="437" y="15" type="line"/>
      <point x="437" y="297" type="line"/>
      <point x="585" y="297" type="line" smooth="yes"/>
      <point x="685" y="297"/>
      <point x="746" y="239"/>
      <point x="746" y="157" type="curve" smooth="yes"/>
      <point x="746" y="77"/>
      <point x="685" y="15"/>
      <point x="585" y="15" type="curve" smooth="yes"/>
    </contour>
  </outline>
</glyph>
<glyph name="tshecyrillic" format="2">
  <advance height="1000" width="505"/>
  <unicode hex="045B"/>
  <outline>
    <contour>
      <point x="16" y="606" type="line"/>
      <point x="201" y="606" type="line"/>
      <point x="201" y="621" type="line"/>
      <point x="16" y="621" type="line"/>
    </contour>
    <contour>
      <point x="94" y="0" type="line"/>
      <point x="94" y="418" type="line"/>
      <point x="122" y="477"/>
      <point x="186" y="518"/>
      <point x="256" y="518" type="curve" smooth="yes"/>
      <point x="352" y="518"/>
      <point x="417" y="449"/>
      <point x="417" y="347" type="curve" smooth="yes"/>
      <point x="417" y="0" type="line"/>
      <point x="433" y="0" type="line"/>
      <point x="433" y="347" type="line" smooth="yes"/>
      <point x="433" y="458"/>
      <point x="361" y="533"/>
      <point x="256" y="533" type="curve" smooth="yes"/>
      <point x="189" y="533"/>
      <point x="127" y="498"/>
      <point x="94" y="448" type="curve"/>
      <point x="94" y="740" type="line"/>
      <point x="78" y="740" type="line"/>
      <point x="78" y="0" type="line"/>
    </contour>
  </outline>
</glyph>
<glyph name="kjecyrillic" format="2">
  <advance height="1000" width="444"/>
  <unicode hex="045C"/>
  <outline>
    <contour>
      <point x="176" y="275" type="line"/>
      <point x="406" y="525" type="line"/>
      <point x="386" y="525" type="line"/>
      <point x="162" y="281" type="line"/>
      <point x="92" y="281" type="line"/>
      <point x="92" y="525" type="line"/>
      <point x="76" y="525" type="line"/>
      <point x="76" y="0" type="line"/>
      <point x="92" y="0" type="line"/>
      <point x="92" y="266" type="line"/>
      <point x="162" y="266" type="line"/>
      <point x="399" y="0" type="line"/>
      <point x="420" y="0" type="line"/>
    </contour>
    <contour>
      <point x="218" y="582" type="line"/>
      <point x="318" y="708" type="line"/>
      <point x="298" y="708" type="line"/>
      <point x="199" y="582" type="line"/>
    </contour>
  </outline>
</glyph>
<glyph name="ushortcyrillic" format="2">
  <advance height="1000" width="483"/>
  <unicode hex="045E"/>
  <outline>
    <contour>
      <point x="4.0" y="-197.0" type="line" smooth="yes"/>
      <point x="107.0" y="-197.0"/>
      <point x="176.0" y="-172.0"/>
      <point x="249.0" y="5.0" type="curve"/>
      <point x="463.0" y="525.0" type="line"/>
      <point x="446.0" y="525.0" type="line"/>
      <point x="242.0" y="30.0" type="line"/>
      <point x="41.0" y="525.0" type="line"/>
      <point x="21.0" y="525.0" type="line"/>
      <point x="231.0" y="13.0" type="line"/>
      <point x="233.0" y="8.0" type="line"/>
      <point x="163.0" y="-160.0"/>
      <point x="99.0" y="-182.0"/>
      <point x="4.0" y="-182.0" type="curve" smooth="yes"/>
      <point x="-8.0" y="-182.0" type="line"/>
      <point x="-8.0" y="-197.0" type="line"/>
    </contour>
    <contour>
      <point x="151" y="743" type="curve"/>
      <point x="136" y="743" type="line"/>
      <point x="136" y="663"/>
      <point x="182" y="622"/>
      <point x="247" y="622" type="curve" smooth="yes"/>
      <point x="312" y="622"/>
      <point x="358" y="663"/>
      <point x="358" y="743" type="curve"/>
      <point x="343" y="743" type="line"/>
      <point x="343" y="676"/>
      <point x="304" y="636"/>
      <point x="247" y="636" type="curve" smooth="yes"/>
      <point x="190" y="636"/>
      <point x="151" y="676"/>
    </contour>
  </outline>
</glyph>
<glyph name="dzhecyrillic" format="2">
  <advance height="1000" width="510"/>
  <unicode hex="045F"/>
  <outline>
    <contour>
      <point x="76" y="0" type="line"/>
      <point x="247" y="0" type="line"/>
      <point x="247" y="-128" type="line"/>
      <point x="263" y="-128" type="line"/>
      <point x="263" y="0" type="line"/>
      <point x="434" y="0" type="line"/>
      <point x="434" y="525" type="line"/>
      <point x="418" y="525" type="line"/>
      <point x="418" y="15" type="line"/>
      <point x="92" y="15" type="line"/>
      <point x="92" y="525" type="line"/>
      <point x="76" y="525" type="line"/>
    </contour>
  </outline>
</glyph>
<glyph name="ustraightstrokecyrillic" format="2">
  <advance height="1000" width="478"/>
  <unicode hex="04B1"/>
  <outline>
    <contour>
      <point x="231" y="-197" type="line"/>
      <point x="247" y="-197" type="line"/>
      <point x="247" y="0" type="line"/>
      <point x="458" y="525" type="line"/>
      <point x="440" y="525" type="line"/>
      <point x="239" y="24" type="line"/>
      <point x="37" y="525" type="line"/>
      <point x="20" y="525" type="line"/>
      <point x="231" y="0" type="line"/>
    </contour>
    <contour>
      <point x="392" y="-15" type="line"/>
      <point x="392" y="0" type="line"/>
      <point x="86" y="0" type="line"/>
      <point x="86" y="-15" type="line"/>
    </contour>
  </outline>
</glyph>
<glyph name="Hadescendercyrillic" format="2">
  <advance height="1000" width="659"/>
  <unicode hex="04B2"/>
  <outline>
    <contour>
      <point x="64" y="0" type="line"/>
      <point x="312" y="366" type="line"/>
      <point x="561" y="0" type="line"/>
      <point x="581" y="0" type="line"/>
      <point x="322" y="379" type="line"/>
      <point x="566" y="740" type="line"/>
      <point x="546" y="740" type="line"/>
      <point x="313" y="391" type="line"/>
      <point x="80" y="740" type="line"/>
      <point x="60" y="740" type="line"/>
      <point x="304" y="379" type="line"/>
      <point x="44" y="0" type="line"/>
    </contour>
    <contour>
      <point x="561" y="15" type="line"/>
      <point x="561" y="0" type="line"/>
      <point x="637" y="0" type="line"/>
      <point x="637" y="-143" type="line"/>
      <point x="653" y="-143" type="line"/>
      <point x="653" y="15" type="line"/>
    </contour>
  </outline>
</glyph>
<glyph name="Chedescendercyrillic" format="2">
  <advance height="1000" width="671"/>
  <unicode hex="04B6"/>
  <outline>
    <contour>
      <point x="617" y="0" type="line"/>
      <point x="617" y="-143" type="line"/>
      <point x="633" y="-143" type="line"/>
      <point x="633" y="15" type="line"/>
      <point x="531" y="15" type="line"/>
      <point x="531" y="740" type="line"/>
      <point x="515" y="740" type="line"/>
      <point x="515" y="369" type="line"/>
      <point x="461" y="313"/>
      <point x="388" y="291"/>
      <point x="286" y="291" type="curve" smooth="yes"/>
      <point x="152" y="291"/>
      <point x="80" y="346"/>
      <point x="80" y="486" type="curve" smooth="yes"/>
      <point x="80" y="740" type="line"/>
      <point x="64" y="740" type="line"/>
      <point x="64" y="486" type="line" smooth="yes"/>
      <point x="64" y="336"/>
      <point x="142" y="275"/>
      <point x="286" y="275" type="curve" smooth="yes"/>
      <point x="390" y="275"/>
      <point x="463" y="299"/>
      <point x="515" y="349" type="curve"/>
      <point x="515" y="0" type="line"/>
    </contour>
  </outline>
</glyph>
<glyph name="quotesinglbase" format="2">
  <advance height="1000" width="149"/>
  <unicode hex="201A"/>
  <outline>
    <contour>
      <point x="48" y="-116" type="line"/>
      <point x="78" y="-79"/>
      <point x="89" y="-41"/>
      <point x="89" y="20" type="curve" smooth="yes"/>
      <point x="89" y="83" type="line"/>
      <point x="73" y="83" type="line"/>
      <point x="73" y="20" type="line" smooth="yes"/>
      <point x="73" y="-32"/>
      <point x="64" y="-70"/>
      <point x="36" y="-107" type="curve"/>
    </contour>
  </outline>
</glyph>
<glyph name="quotedblbase" format="2">
  <advance height="1000" width="239"/>
  <unicode hex="201E"/>
  <outline>
    <contour>
      <point x="48" y="-116" type="line"/>
      <point x="78" y="-79"/>
      <point x="89" y="-41"/>
      <point x="89" y="20" type="curve" smooth="yes"/>
      <point x="89" y="83" type="line"/>
      <point x="73" y="83" type="line"/>
      <point x="73" y="20" type="line" smooth="yes"/>
      <point x="73" y="-32"/>
      <point x="64" y="-70"/>
      <point x="36" y="-107" type="curve"/>
    </contour>
    <contour>
      <point x="138" y="-116" type="line"/>
      <point x="168" y="-79"/>
      <point x="179" y="-41"/>
      <point x="179" y="20" type="curve" smooth="yes"/>
      <point x="179" y="83" type="line"/>
      <point x="163" y="83" type="line"/>
      <point x="163" y="20" type="line" smooth="yes"/>
      <point x="163" y="-32"/>
      <point x="154" y="-70"/>
      <point x="126" y="-107" type="curve"/>
    </contour>
  </outline>
</glyph>
<glyph name="Euro" format="2">
  <advance height="1000" width="761"/>
  <unicode hex="20AC"/>
  <outline>
    <contour>
      <point x="36" y="404" type="line"/>
      <point x="336" y="404" type="line"/>
      <point x="336" y="419" type="line"/>
      <point x="36" y="419" type="line"/>
    </contour>
    <contour>
      <point x="36" y="312" type="line"/>
      <point x="338" y="312" type="line"/>
      <point x="338" y="327" type="line"/>
      <point x="36" y="327" type="line"/>
    </contour>
    <contour>
      <point x="491" y="-8" type="curve" smooth="yes"/>
      <point x="572" y="-8"/>
      <point x="643" y="10"/>
      <point x="713" y="45" type="curve"/>
      <point x="713" y="64" type="line"/>
      <point x="645" y="26"/>
      <point x="568" y="8"/>
      <point x="491" y="8" type="curve" smooth="yes"/>
      <point x="275" y="8"/>
      <point x="130" y="153"/>
      <point x="130" y="370" type="curve" smooth="yes"/>
      <point x="130" y="588"/>
      <point x="275" y="734"/>
      <point x="491" y="734" type="curve" smooth="yes"/>
      <point x="566" y="734"/>
      <point x="639" y="721"/>
      <point x="706" y="691" type="curve"/>
      <point x="706" y="708" type="line"/>
      <point x="636" y="738"/>
      <point x="569" y="750"/>
      <point x="491" y="750" type="curve" smooth="yes"/>
      <point x="266" y="750"/>
      <point x="115" y="599"/>
      <point x="115" y="370" type="curve" smooth="yes"/>
      <point x="115" y="143"/>
      <point x="266" y="-8"/>
    </contour>
  </outline>
</glyph>
<glyph name="Omega" format="2">
  <advance height="1000" width="760"/>
  <unicode hex="2126"/>
  <outline>
    <contour>
      <point x="69" y="0" type="line"/>
      <point x="347" y="0" type="line"/>
      <point x="347" y="108" type="line"/>
      <point x="177" y="141"/>
      <point x="65" y="249"/>
      <point x="65" y="417" type="curve" smooth="yes"/>
      <point x="65" y="599.0"/>
      <point x="204" y="734"/>
      <point x="380" y="734" type="curve" smooth="yes"/>
      <point x="556" y="734"/>
      <point x="695" y="599"/>
      <point x="695" y="417" type="curve" smooth="yes"/>
      <point x="695" y="247"/>
      <point x="579" y="141"/>
      <point x="409" y="108" type="curve"/>
      <point x="409" y="0" type="line"/>
      <point x="687" y="0" type="line"/>
      <point x="687" y="17" type="line"/>
      <point x="424" y="17" type="line"/>
      <point x="424" y="96" type="line"/>
      <point x="591.0" y="129"/>
      <point x="712" y="246"/>
      <point x="712" y="417" type="curve" smooth="yes"/>
      <point x="712" y="613"/>
      <point x="559" y="749"/>
      <point x="380" y="749" type="curve" smooth="yes"/>
      <point x="201" y="749"/>
      <point x="48" y="613"/>
      <point x="48" y="417" type="curve" smooth="yes"/>
      <point x="48" y="248"/>
      <point x="165.0" y="129"/>
      <point x="332" y="96" type="curve"/>
      <point x="332" y="17" type="line"/>
      <point x="69" y="17" type="line"/>
    </contour>
  </outline>
</glyph>
<glyph name="uni2460" format="2">
  <advance height="1000" width="1000"/>
  <unicode hex="2460"/>
  <outline>
    <contour>
      <point x="350" y="96" type="line"/>
      <point x="670" y="96" type="line"/>
      <point x="670" y="112" type="line"/>
      <point x="518" y="112" type="line"/>
      <point x="518" y="637" type="line"/>
      <point x="329" y="592" type="line"/>
      <point x="329" y="576" type="line"/>
      <point x="502" y="618" type="line"/>
      <point x="502" y="112" type="line"/>
      <point x="350" y="112" type="line"/>
    </contour>
    <contour>
      <point x="980" y="350" type="curve" smooth="yes"/>
      <point x="980" y="638"/>
      <point x="759" y="830"/>
      <point x="500" y="830" type="curve" smooth="yes"/>
      <point x="241" y="830"/>
      <point x="20" y="638"/>
      <point x="20" y="350" type="curve" smooth="yes"/>
      <point x="20" y="62"/>
      <point x="241" y="-130"/>
      <point x="500" y="-130" type="curve" smooth="yes"/>
      <point x="759" y="-130"/>
      <point x="980" y="62"/>
    </contour>
    <contour>
      <point x="964" y="350" type="curve" smooth="yes"/>
      <point x="964" y="99"/>
      <point x="778" y="-114"/>
      <point x="500" y="-114" type="curve" smooth="yes"/>
      <point x="222" y="-114"/>
      <point x="36" y="99"/>
      <point x="36" y="350" type="curve" smooth="yes"/>
      <point x="36" y="601"/>
      <point x="222" y="814"/>
      <point x="500" y="814" type="curve" smooth="yes"/>
      <point x="778" y="814"/>
      <point x="964" y="601"/>
    </contour>
  </outline>
</glyph>
<glyph name="uni2464" format="2">
  <advance height="1000" width="1000"/>
  <unicode hex="2464"/>
  <outline>
    <contour>
      <point x="492" y="80" type="curve" smooth="yes"/>
      <point x="593" y="80"/>
      <point x="657" y="146"/>
      <point x="657" y="243" type="curve" smooth="yes"/>
      <point x="657" y="338"/>
      <point x="594" y="402"/>
      <point x="472" y="402" type="curve" smooth="yes"/>
      <point x="442" y="402"/>
      <point x="408" y="399"/>
      <point x="386" y="395" type="curve"/>
      <point x="404" y="605" type="line"/>
      <point x="636" y="605" type="line"/>
      <point x="635" y="621" type="line"/>
      <point x="390" y="621" type="line"/>
      <point x="368" y="378" type="line"/>
      <point x="408" y="385"/>
      <point x="435" y="387"/>
      <point x="472" y="387" type="curve" smooth="yes"/>
      <point x="581" y="387"/>
      <point x="641" y="331"/>
      <point x="641" y="243" type="curve" smooth="yes"/>
      <point x="641" y="151"/>
      <point x="586" y="95"/>
      <point x="492" y="95" type="curve" smooth="yes"/>
      <point x="442" y="95"/>
      <point x="390" y="118"/>
      <point x="350" y="156" type="curve"/>
      <point x="350" y="135" type="line"/>
      <point x="387" y="102"/>
      <point x="435" y="80"/>
    </contour>
    <contour>
      <point x="980" y="350" type="curve" smooth="yes"/>
      <point x="980" y="638"/>
      <point x="759" y="830"/>
      <point x="500" y="830" type="curve" smooth="yes"/>
      <point x="241" y="830"/>
      <point x="20" y="638"/>
      <point x="20" y="350" type="curve" smooth="yes"/>
      <point x="20" y="62"/>
      <point x="241" y="-130"/>
      <point x="500" y="-130" type="curve" smooth="yes"/>
      <point x="759" y="-130"/>
      <point x="980" y="62"/>
    </contour>
    <contour>
      <point x="964" y="350" type="curve" smooth="yes"/>
      <point x="964" y="99"/>
      <point x="778" y="-114"/>
      <point x="500" y="-114" type="curve" smooth="yes"/>
      <point x="222" y="-114"/>
      <point x="36" y="99"/>
      <point x="36" y="350" type="curve" smooth="yes"/>
      <point x="36" y="601"/>
      <point x="222" y="814"/>
      <point x="500" y="814" type="curve" smooth="yes"/>
      <point x="778" y="814"/>
      <point x="964" y="601"/>
    </contour>
  </outline>
</glyph>
<glyph name="uni2465" format="2">
  <advance height="1000" width="1000"/>
  <unicode hex="2465"/>
  <outline>
    <contour>
      <point x="496.0" y="80" type="curve" smooth="yes"/>
      <point x="591.0" y="80"/>
      <point x="659.0" y="159"/>
      <point x="659.0" y="265" type="curve" smooth="yes"/>
      <point x="659.0" y="366"/>
      <point x="590.0" y="433"/>
      <point x="492.0" y="433" type="curve" smooth="yes"/>
      <point x="410.0" y="433"/>
      <point x="359.0" y="393"/>
      <point x="338.0" y="350" type="curve"/>
      <point x="349.0" y="522"/>
      <point x="410.0" y="615"/>
      <point x="533.0" y="615" type="curve" smooth="yes"/>
      <point x="568.0" y="615"/>
      <point x="604.0" y="607"/>
      <point x="638.0" y="590" type="curve"/>
      <point x="638.0" y="607" type="line"/>
      <point x="608.0" y="621"/>
      <point x="569.0" y="629"/>
      <point x="533.0" y="629" type="curve" smooth="yes"/>
      <point x="394.0" y="629"/>
      <point x="321.0" y="519"/>
      <point x="321.0" y="301" type="curve" smooth="yes"/>
      <point x="321.0" y="164"/>
      <point x="386.0" y="80"/>
    </contour>
    <contour>
      <point x="496.0" y="95" type="curve" smooth="yes"/>
      <point x="393.0" y="95"/>
      <point x="336.0" y="171"/>
      <point x="336.0" y="301" type="curve" smooth="yes"/>
      <point x="336.0" y="362"/>
      <point x="404.0" y="418"/>
      <point x="492.0" y="418" type="curve" smooth="yes"/>
      <point x="583.0" y="418"/>
      <point x="643.0" y="359"/>
      <point x="643.0" y="265" type="curve" smooth="yes"/>
      <point x="643.0" y="166"/>
      <point x="585.0" y="95"/>
    </contour>
    <contour>
      <point x="980" y="350" type="curve" smooth="yes"/>
      <point x="980" y="638"/>
      <point x="759" y="830"/>
      <point x="500" y="830" type="curve" smooth="yes"/>
      <point x="241" y="830"/>
      <point x="20" y="638"/>
      <point x="20" y="350" type="curve" smooth="yes"/>
      <point x="20" y="62"/>
      <point x="241" y="-130"/>
      <point x="500" y="-130" type="curve" smooth="yes"/>
      <point x="759" y="-130"/>
      <point x="980" y="62"/>
    </contour>
    <contour>
      <point x="964" y="350" type="curve" smooth="yes"/>
      <point x="964" y="99"/>
      <point x="778" y="-114"/>
      <point x="500" y="-114" type="curve" smooth="yes"/>
      <point x="222" y="-114"/>
      <point x="36" y="99"/>
      <point x="36" y="350" type="curve" smooth="yes"/>
      <point x="36" y="601"/>
      <point x="222" y="814"/>
      <point x="500" y="814" type="curve" smooth="yes"/>
      <point x="778" y="814"/>
      <point x="964" y="601"/>
    </contour>
  </outline>
</glyph>
<glyph name="uni2475" format="2">
  <advance height="1000" width="1000"/>
  <unicode hex="2475"/>
  <outline>
    <contour>
      <point x="343" y="0" type="line"/>
      <point x="663" y="0" type="line"/>
      <point x="663" y="16" type="line"/>
      <point x="369" y="16" type="line"/>
      <point x="615.6969939630874" y="245.25377216771759"/>
      <point x="657" y="308"/>
      <point x="657" y="387" type="curve" smooth="yes"/>
      <point x="657" y="483"/>
      <point x="585" y="541"/>
      <point x="493" y="541" type="curve" smooth="yes"/>
      <point x="442" y="541"/>
      <point x="386" y="524"/>
      <point x="345" y="498" type="curve"/>
      <point x="345" y="479" type="line"/>
      <point x="390" y="510"/>
      <point x="446" y="526"/>
      <point x="493" y="526" type="curve" smooth="yes"/>
      <point x="577" y="526"/>
      <point x="641" y="476"/>
      <point x="641" y="387" type="curve" smooth="yes"/>
      <point x="641" y="313"/>
      <point x="599.7969412254956" y="254.28131273994325"/>
      <point x="343" y="11" type="curve"/>
    </contour>
    <contour>
      <point x="225" y="-189" type="curve"/>
      <point x="245" y="-189" type="line"/>
      <point x="118" y="-49"/>
      <point x="48" y="106"/>
      <point x="48" y="276" type="curve" smooth="yes"/>
      <point x="48" y="444"/>
      <point x="117" y="600"/>
      <point x="244" y="740" type="curve"/>
      <point x="225" y="740" type="line"/>
      <point x="99" y="600"/>
      <point x="32" y="445"/>
      <point x="32" y="276" type="curve" smooth="yes"/>
      <point x="32" y="107"/>
      <point x="99" y="-49"/>
    </contour>
    <contour>
      <point x="759" y="-189" type="curve"/>
      <point x="778" y="-189" type="line"/>
      <point x="904" y="-49"/>
      <point x="968" y="107"/>
      <point x="968" y="276" type="curve" smooth="yes"/>
      <point x="968" y="445"/>
      <point x="905" y="600"/>
      <point x="779" y="740" type="curve"/>
      <point x="759" y="740" type="line"/>
      <point x="886" y="600"/>
      <point x="952" y="446"/>
      <point x="952" y="276" type="curve" smooth="yes"/>
      <point x="952" y="108"/>
      <point x="886" y="-49"/>
    </contour>
  </outline>
</glyph>
<glyph name="uni2479" format="2">
  <advance height="1000" width="1000"/>
  <unicode hex="2479"/>
  <outline>
    <contour>
      <point x="494" y="-8" type="curve" smooth="yes"/>
      <point x="589" y="-8"/>
      <point x="657" y="71"/>
      <point x="657" y="177" type="curve" smooth="yes"/>
      <point x="657" y="278"/>
      <point x="588" y="345"/>
      <point x="490" y="345" type="curve" smooth="yes"/>
      <point x="408" y="345"/>
      <point x="357" y="305"/>
      <point x="336" y="262" type="curve"/>
      <point x="347" y="434"/>
      <point x="408" y="527"/>
      <point x="531" y="527" type="curve" smooth="yes"/>
      <point x="566" y="527"/>
      <point x="602" y="519"/>
      <point x="636" y="502" type="curve"/>
      <point x="636" y="519" type="line"/>
      <point x="606" y="533"/>
      <point x="567" y="541"/>
      <point x="531" y="541" type="curve" smooth="yes"/>
      <point x="392" y="541"/>
      <point x="319" y="431"/>
      <point x="319" y="213" type="curve" smooth="yes"/>
      <point x="319" y="76"/>
      <point x="384" y="-8"/>
    </contour>
    <contour>
      <point x="494" y="7" type="curve" smooth="yes"/>
      <point x="391" y="7"/>
      <point x="334" y="83"/>
      <point x="334" y="213" type="curve" smooth="yes"/>
      <point x="334" y="274"/>
      <point x="402" y="330"/>
      <point x="490" y="330" type="curve" smooth="yes"/>
      <point x="581" y="330"/>
      <point x="641" y="271"/>
      <point x="641" y="177" type="curve" smooth="yes"/>
      <point x="641" y="78"/>
      <point x="583" y="7"/>
    </contour>
    <contour>
      <point x="225" y="-189" type="curve"/>
      <point x="245" y="-189" type="line"/>
      <point x="118" y="-49"/>
      <point x="48" y="106"/>
      <point x="48" y="276" type="curve" smooth="yes"/>
      <point x="48" y="444"/>
      <point x="117" y="600"/>
      <point x="244" y="740" type="curve"/>
      <point x="225" y="740" type="line"/>
      <point x="99" y="600"/>
      <point x="32" y="445"/>
      <point x="32" y="276" type="curve" smooth="yes"/>
      <point x="32" y="107"/>
      <point x="99" y="-49"/>
    </contour>
    <contour>
      <point x="759" y="-189" type="curve"/>
      <point x="778" y="-189" type="line"/>
      <point x="904" y="-49"/>
      <point x="968" y="107"/>
      <point x="968" y="276" type="curve" smooth="yes"/>
      <point x="968" y="445"/>
      <point x="905" y="600"/>
      <point x="779" y="740" type="curve"/>
      <point x="759" y="740" type="line"/>
      <point x="886" y="600"/>
      <point x="952" y="446"/>
      <point x="952" y="276" type="curve" smooth="yes"/>
      <point x="952" y="108"/>
      <point x="886" y="-49"/>
    </contour>
  </outline>
</glyph>
<glyph name="uni248A" format="2">
  <advance height="1000" width="1000"/>
  <unicode hex="248A"/>
  <outline>
    <contour>
      <point x="481" y="-8" type="curve" smooth="yes"/>
      <point x="609" y="-8"/>
      <point x="695" y="71"/>
      <point x="695" y="189" type="curve" smooth="yes"/>
      <point x="695" y="289"/>
      <point x="628" y="361"/>
      <point x="521" y="383" type="curve"/>
      <point x="625" y="404"/>
      <point x="688" y="473"/>
      <point x="688" y="568" type="curve" smooth="yes"/>
      <point x="688" y="677"/>
      <point x="611" y="748"/>
      <point x="495" y="748" type="curve" smooth="yes"/>
      <point x="426" y="748"/>
      <point x="351" y="721"/>
      <point x="303" y="682" type="curve"/>
      <point x="303" y="662" type="line"/>
      <point x="359" y="707"/>
      <point x="429" y="733"/>
      <point x="495" y="733" type="curve" smooth="yes"/>
      <point x="600" y="733"/>
      <point x="672" y="669"/>
      <point x="672" y="568" type="curve" smooth="yes"/>
      <point x="672" y="461"/>
      <point x="582" y="391"/>
      <point x="450" y="391" type="curve" smooth="yes"/>
      <point x="418" y="391" type="line"/>
      <point x="418" y="376" type="line"/>
      <point x="450" y="376" type="line" smooth="yes"/>
      <point x="587" y="376"/>
      <point x="679" y="300"/>
      <point x="679" y="189" type="curve" smooth="yes"/>
      <point x="679" y="79"/>
      <point x="599" y="7"/>
      <point x="481" y="7" type="curve" smooth="yes"/>
      <point x="417" y="7"/>
      <point x="342" y="32"/>
      <point x="283" y="77" type="curve"/>
      <point x="283" y="55" type="line"/>
      <point x="338" y="16"/>
      <point x="413" y="-8"/>
    </contour>
    <contour>
      <point x="849" y="0" type="line"/>
      <point x="880" y="0" type="line"/>
      <point x="880" y="31" type="line"/>
      <point x="849" y="31" type="line"/>
    </contour>
  </outline>
</glyph>
<glyph name="uni248B" format="2">
  <advance height="1000" width="1000"/>
  <unicode hex="248B"/>
  <outline>
    <contour>
      <point x="597" y="0" type="line"/>
      <point x="614" y="0" type="line"/>
      <point x="614" y="223" type="line"/>
      <point x="728" y="223" type="line"/>
      <point x="728" y="238" type="line"/>
      <point x="614" y="238" type="line"/>
      <point x="614" y="758" type="line"/>
      <point x="600" y="758" type="line"/>
      <point x="242" y="236" type="line"/>
      <point x="242" y="223" type="line"/>
      <point x="597" y="223" type="line"/>
    </contour>
    <contour>
      <point x="262" y="238" type="line"/>
      <point x="597" y="726" type="line"/>
      <point x="597" y="238" type="line"/>
    </contour>
    <contour>
      <point x="849" y="0" type="line"/>
      <point x="880" y="0" type="line"/>
      <point x="880" y="31" type="line"/>
      <point x="849" y="31" type="line"/>
    </contour>
  </outline>
</glyph>
<glyph name="uni248C" format="2">
  <advance height="1000" width="1000"/>
  <unicode hex="248C"/>
  <outline>
    <contour>
      <point x="495" y="-8" type="curve" smooth="yes"/>
      <point x="633" y="-8"/>
      <point x="723" y="81"/>
      <point x="723" y="213" type="curve" smooth="yes"/>
      <point x="723" y="343"/>
      <point x="625" y="430"/>
      <point x="476" y="430" type="curve" smooth="yes"/>
      <point x="430" y="430"/>
      <point x="391" y="426"/>
      <point x="350" y="421" type="curve"/>
      <point x="376" y="724" type="line"/>
      <point x="705" y="724" type="line"/>
      <point x="705" y="740" type="line"/>
      <point x="361" y="740" type="line"/>
      <point x="332" y="402" type="line"/>
      <point x="387" y="411"/>
      <point x="426" y="415"/>
      <point x="476" y="415" type="curve" smooth="yes"/>
      <point x="614" y="415"/>
      <point x="707" y="334"/>
      <point x="707" y="213" type="curve" smooth="yes"/>
      <point x="707" y="89"/>
      <point x="622" y="7"/>
      <point x="495" y="7" type="curve" smooth="yes"/>
      <point x="418" y="7"/>
      <point x="346" y="43"/>
      <point x="291" y="102" type="curve"/>
      <point x="291" y="77" type="line"/>
      <point x="342" y="27"/>
      <point x="413" y="-8"/>
    </contour>
    <contour>
      <point x="849" y="0" type="line"/>
      <point x="880" y="0" type="line"/>
      <point x="880" y="31" type="line"/>
      <point x="849" y="31" type="line"/>
    </contour>
  </outline>
</glyph>
<glyph name="uni248D" format="2">
  <advance height="1000" width="1000"/>
  <unicode hex="248D"/>
  <outline>
    <contour>
      <point x="502" y="-8" type="curve" smooth="yes"/>
      <point x="631" y="-8"/>
      <point x="719" y="89"/>
      <point x="719" y="235" type="curve" smooth="yes"/>
      <point x="719" y="375"/>
      <point x="630" y="470"/>
      <point x="497" y="470" type="curve" smooth="yes"/>
      <point x="401" y="470"/>
      <point x="318" y="422"/>
      <point x="285" y="359" type="curve"/>
      <point x="298" y="606"/>
      <point x="387" y="733"/>
      <point x="553" y="733" type="curve" smooth="yes"/>
      <point x="599" y="733"/>
      <point x="648" y="721"/>
      <point x="695" y="697" type="curve"/>
      <point x="695" y="713" type="line"/>
      <point x="654" y="733"/>
      <point x="600" y="748"/>
      <point x="553" y="748" type="curve" smooth="yes"/>
      <point x="365" y="748"/>
      <point x="266" y="597"/>
      <point x="266" y="296" type="curve" smooth="yes"/>
      <point x="266" y="109"/>
      <point x="353" y="-8"/>
    </contour>
    <contour>
      <point x="502" y="7" type="curve" smooth="yes"/>
      <point x="363" y="7"/>
      <point x="282" y="117"/>
      <point x="282" y="296" type="curve" smooth="yes"/>
      <point x="282" y="381"/>
      <point x="382" y="455"/>
      <point x="497" y="455" type="curve" smooth="yes"/>
      <point x="619" y="455"/>
      <point x="702" y="366"/>
      <point x="702" y="235" type="curve" smooth="yes"/>
      <point x="702" y="99"/>
      <point x="622" y="7"/>
    </contour>
    <contour>
      <point x="849" y="0" type="line"/>
      <point x="880" y="0" type="line"/>
      <point x="880" y="31" type="line"/>
      <point x="849" y="31" type="line"/>
    </contour>
  </outline>
</glyph>
<glyph name="uni249E" format="2">
  <advance height="1000" width="1000"/>
  <unicode hex="249E"/>
  <outline>
    <contour>
      <point x="533" y="-7" type="curve" smooth="yes"/>
      <point x="589" y="-7"/>
      <point x="649" y="13"/>
      <point x="695" y="42" type="curve"/>
      <point x="695" y="59" type="line"/>
      <point x="646" y="28"/>
      <point x="584" y="8"/>
      <point x="533" y="8" type="curve" smooth="yes"/>
      <point x="392" y="8"/>
      <point x="296" y="108"/>
      <point x="296" y="260" type="curve" smooth="yes"/>
      <point x="296" y="412"/>
      <point x="388" y="518"/>
      <point x="526" y="518" type="curve" smooth="yes"/>
      <point x="582" y="518"/>
      <point x="635" y="500"/>
      <point x="695" y="470" type="curve"/>
      <point x="695" y="487" type="line"/>
      <point x="640" y="515"/>
      <point x="584" y="533"/>
      <point x="526" y="533" type="curve" smooth="yes"/>
      <point x="379" y="533"/>
      <point x="280" y="422"/>
      <point x="280" y="260" type="curve" smooth="yes"/>
      <point x="280" y="99"/>
      <point x="381" y="-7"/>
    </contour>
    <contour>
      <point x="225" y="-189" type="curve"/>
      <point x="245" y="-189" type="line"/>
      <point x="118" y="-49"/>
      <point x="48" y="106"/>
      <point x="48" y="276" type="curve" smooth="yes"/>
      <point x="48" y="444"/>
      <point x="117" y="600"/>
      <point x="244" y="740" type="curve"/>
      <point x="225" y="740" type="line"/>
      <point x="99" y="600"/>
      <point x="32" y="445"/>
      <point x="32" y="276" type="curve" smooth="yes"/>
      <point x="32" y="107"/>
      <point x="99" y="-49"/>
    </contour>
    <contour>
      <point x="759" y="-189" type="curve"/>
      <point x="778" y="-189" type="line"/>
      <point x="904" y="-49"/>
      <point x="968" y="107"/>
      <point x="968" y="276" type="curve" smooth="yes"/>
      <point x="968" y="445"/>
      <point x="905" y="600"/>
      <point x="779" y="740" type="curve"/>
      <point x="759" y="740" type="line"/>
      <point x="886" y="600"/>
      <point x="952" y="446"/>
      <point x="952" y="276" type="curve" smooth="yes"/>
      <point x="952" y="108"/>
      <point x="886" y="-49"/>
    </contour>
  </outline>
</glyph>
<glyph name="uni249F" format="2">
  <advance height="1000" width="1000"/>
  <unicode hex="249F"/>
  <outline>
    <contour>
      <point x="489" y="-8" type="curve" smooth="yes"/>
      <point x="559" y="-8"/>
      <point x="620" y="23"/>
      <point x="661" y="69" type="curve"/>
      <point x="664" y="0" type="line"/>
      <point x="677" y="0" type="line"/>
      <point x="677" y="740" type="line"/>
      <point x="661" y="740" type="line"/>
      <point x="661" y="471" type="line"/>
      <point x="616" y="510"/>
      <point x="558" y="533"/>
      <point x="495" y="533" type="curve" smooth="yes"/>
      <point x="356" y="533"/>
      <point x="256" y="426"/>
      <point x="256" y="263" type="curve" smooth="yes"/>
      <point x="256" y="100"/>
      <point x="350" y="-8"/>
    </contour>
    <contour>
      <point x="489" y="7" type="curve" smooth="yes"/>
      <point x="360" y="7"/>
      <point x="272" y="110"/>
      <point x="272" y="263" type="curve" smooth="yes"/>
      <point x="272" y="415"/>
      <point x="366" y="518"/>
      <point x="495" y="518" type="curve" smooth="yes"/>
      <point x="555" y="518"/>
      <point x="613" y="494"/>
      <point x="661" y="452" type="curve"/>
      <point x="661" y="90" type="line"/>
      <point x="617" y="35"/>
      <point x="553" y="7"/>
    </contour>
    <contour>
      <point x="225" y="-189" type="curve"/>
      <point x="245" y="-189" type="line"/>
      <point x="118" y="-49"/>
      <point x="48" y="106"/>
      <point x="48" y="276" type="curve" smooth="yes"/>
      <point x="48" y="444"/>
      <point x="117" y="600"/>
      <point x="244" y="740" type="curve"/>
      <point x="225" y="740" type="line"/>
      <point x="99" y="600"/>
      <point x="32" y="445"/>
      <point x="32" y="276" type="curve" smooth="yes"/>
      <point x="32" y="107"/>
      <point x="99" y="-49"/>
    </contour>
    <contour>
      <point x="759" y="-189" type="curve"/>
      <point x="778" y="-189" type="line"/>
      <point x="904" y="-49"/>
      <point x="968" y="107"/>
      <point x="968" y="276" type="curve" smooth="yes"/>
      <point x="968" y="445"/>
      <point x="905" y="600"/>
      <point x="779" y="740" type="curve"/>
      <point x="759" y="740" type="line"/>
      <point x="886" y="600"/>
      <point x="952" y="446"/>
      <point x="952" y="276" type="curve" smooth="yes"/>
      <point x="952" y="108"/>
      <point x="886" y="-49"/>
    </contour>
  </outline>
</glyph>
<glyph name="uni24A0" format="2">
  <advance height="1000" width="1000"/>
  <unicode hex="24A0"/>
  <outline>
    <contour>
      <point x="508" y="-8" type="curve" smooth="yes"/>
      <point x="574" y="-8"/>
      <point x="636" y="11"/>
      <point x="694" y="50" type="curve"/>
      <point x="694" y="68" type="line"/>
      <point x="635" y="28"/>
      <point x="574" y="7"/>
      <point x="508" y="7" type="curve" smooth="yes"/>
      <point x="375" y="7"/>
      <point x="286" y="109"/>
      <point x="286" y="261" type="curve" smooth="yes"/>
      <point x="286" y="279" type="line"/>
      <point x="707" y="279" type="line"/>
      <point x="707" y="284" type="line" smooth="yes"/>
      <point x="707" y="432"/>
      <point x="623" y="533"/>
      <point x="499" y="533" type="curve" smooth="yes"/>
      <point x="360" y="533"/>
      <point x="269" y="424"/>
      <point x="269" y="263" type="curve" smooth="yes"/>
      <point x="269" y="100"/>
      <point x="366" y="-8"/>
    </contour>
    <contour>
      <point x="499" y="518" type="curve" smooth="yes"/>
      <point x="613" y="518"/>
      <point x="688" y="426"/>
      <point x="690" y="294" type="curve"/>
      <point x="287" y="294" type="line"/>
      <point x="296" y="425"/>
      <point x="378" y="518"/>
    </contour>
    <contour>
      <point x="225" y="-189" type="curve"/>
      <point x="245" y="-189" type="line"/>
      <point x="118" y="-49"/>
      <point x="48" y="106"/>
      <point x="48" y="276" type="curve" smooth="yes"/>
      <point x="48" y="444"/>
      <point x="117" y="600"/>
      <point x="244" y="740" type="curve"/>
      <point x="225" y="740" type="line"/>
      <point x="99" y="600"/>
      <point x="32" y="445"/>
      <point x="32" y="276" type="curve" smooth="yes"/>
      <point x="32" y="107"/>
      <point x="99" y="-49"/>
    </contour>
    <contour>
      <point x="759" y="-189" type="curve"/>
      <point x="778" y="-189" type="line"/>
      <point x="904" y="-49"/>
      <point x="968" y="107"/>
      <point x="968" y="276" type="curve" smooth="yes"/>
      <point x="968" y="445"/>
      <point x="905" y="600"/>
      <point x="779" y="740" type="curve"/>
      <point x="759" y="740" type="line"/>
      <point x="886" y="600"/>
      <point x="952" y="446"/>
      <point x="952" y="276" type="curve" smooth="yes"/>
      <point x="952" y="108"/>
      <point x="886" y="-49"/>
    </contour>
  </outline>
</glyph>
<glyph name="uni24A1" format="2">
  <advance height="1000" width="1000"/>
  <unicode hex="24A1"/>
  <outline>
    <contour>
      <point x="441" y="0" type="line"/>
      <point x="457" y="0" type="line"/>
      <point x="457" y="510" type="line"/>
      <point x="574" y="510" type="line"/>
      <point x="574" y="525" type="line"/>
      <point x="457" y="525" type="line"/>
      <point x="457" y="590" type="line" smooth="yes"/>
      <point x="457" y="683"/>
      <point x="507" y="733"/>
      <point x="582" y="733" type="curve" smooth="yes"/>
      <point x="612" y="733"/>
      <point x="641" y="727"/>
      <point x="673" y="711" type="curve"/>
      <point x="673" y="727" type="line"/>
      <point x="644" y="741"/>
      <point x="614" y="748"/>
      <point x="582" y="748" type="curve" smooth="yes"/>
      <point x="497" y="748"/>
      <point x="441" y="693"/>
      <point x="441" y="590" type="curve" smooth="yes"/>
      <point x="441" y="525" type="line"/>
      <point x="359" y="525" type="line"/>
      <point x="359" y="510" type="line"/>
      <point x="441" y="510" type="line"/>
    </contour>
    <contour>
      <point x="225" y="-189" type="curve"/>
      <point x="245" y="-189" type="line"/>
      <point x="118" y="-49"/>
      <point x="48" y="106"/>
      <point x="48" y="276" type="curve" smooth="yes"/>
      <point x="48" y="444"/>
      <point x="117" y="600"/>
      <point x="244" y="740" type="curve"/>
      <point x="225" y="740" type="line"/>
      <point x="99" y="600"/>
      <point x="32" y="445"/>
      <point x="32" y="276" type="curve" smooth="yes"/>
      <point x="32" y="107"/>
      <point x="99" y="-49"/>
    </contour>
    <contour>
      <point x="759" y="-189" type="curve"/>
      <point x="778" y="-189" type="line"/>
      <point x="904" y="-49"/>
      <point x="968" y="107"/>
      <point x="968" y="276" type="curve" smooth="yes"/>
      <point x="968" y="445"/>
      <point x="905" y="600"/>
      <point x="779" y="740" type="curve"/>
      <point x="759" y="740" type="line"/>
      <point x="886" y="600"/>
      <point x="952" y="446"/>
      <point x="952" y="276" type="curve" smooth="yes"/>
      <point x="952" y="108"/>
      <point x="886" y="-49"/>
    </contour>
  </outline>
</glyph>
<glyph name="uni24B7" format="2">
  <advance height="1000" width="1000"/>
  <unicode hex="24B7"/>
  <outline>
    <contour>
      <point x="532" y="100.0" type="line" smooth="yes"/>
      <point x="645.0" y="100.0"/>
      <point x="700" y="154"/>
      <point x="700" y="234" type="curve" smooth="yes"/>
      <point x="700" y="295"/>
      <point x="659" y="345"/>
      <point x="574" y="357" type="curve"/>
      <point x="646" y="371"/>
      <point x="677" y="416"/>
      <point x="677" y="475" type="curve" smooth="yes"/>
      <point x="677" y="549"/>
      <point x="623.0" y="600.0"/>
      <point x="514" y="600" type="curve" smooth="yes"/>
      <point x="364" y="600" type="line"/>
      <point x="364" y="100.0" type="line"/>
    </contour>
    <contour>
      <point x="380" y="364" type="line"/>
      <point x="380" y="585" type="line"/>
      <point x="514" y="585" type="line" smooth="yes"/>
      <point x="614" y="585"/>
      <point x="661" y="545"/>
      <point x="661" y="475" type="curve" smooth="yes"/>
      <point x="661" y="406"/>
      <point x="616" y="364"/>
      <point x="519" y="364" type="curve" smooth="yes"/>
    </contour>
    <contour>
      <point x="380" y="115" type="line"/>
      <point x="380" y="349" type="line"/>
      <point x="519" y="349" type="line" smooth="yes"/>
      <point x="628" y="349"/>
      <point x="684" y="304"/>
      <point x="684" y="234" type="curve" smooth="yes"/>
      <point x="684" y="159"/>
      <point x="634" y="115"/>
      <point x="532" y="115" type="curve" smooth="yes"/>
    </contour>
    <contour>
      <point x="980" y="350" type="curve" smooth="yes"/>
      <point x="980" y="638"/>
      <point x="759" y="830"/>
      <point x="500" y="830" type="curve" smooth="yes"/>
      <point x="241" y="830"/>
      <point x="20" y="638"/>
      <point x="20" y="350" type="curve" smooth="yes"/>
      <point x="20" y="62"/>
      <point x="241" y="-130"/>
      <point x="500" y="-130" type="curve" smooth="yes"/>
      <point x="759" y="-130"/>
      <point x="980" y="62"/>
    </contour>
    <contour>
      <point x="964" y="350" type="curve" smooth="yes"/>
      <point x="964" y="99"/>
      <point x="778" y="-114"/>
      <point x="500" y="-114" type="curve" smooth="yes"/>
      <point x="222" y="-114"/>
      <point x="36" y="99"/>
      <point x="36" y="350" type="curve" smooth="yes"/>
      <point x="36" y="601"/>
      <point x="222" y="814"/>
      <point x="500" y="814" type="curve" smooth="yes"/>
      <point x="778" y="814"/>
      <point x="964" y="601"/>
    </contour>
  </outline>
</glyph>
<glyph name="uni24B8" format="2">
  <advance height="1000" width="1000"/>
  <unicode hex="24B8"/>
  <outline>
    <contour>
      <point x="516" y="92" type="curve" smooth="yes"/>
      <point x="564" y="92"/>
      <point x="625" y="106"/>
      <point x="667" y="128" type="curve"/>
      <point x="667" y="145" type="line"/>
      <point x="626" y="122"/>
      <point x="565" y="107"/>
      <point x="516" y="107" type="curve" smooth="yes"/>
      <point x="372" y="107"/>
      <point x="276" y="204"/>
      <point x="276" y="349" type="curve" smooth="yes"/>
      <point x="276" y="495"/>
      <point x="372" y="593"/>
      <point x="516" y="593" type="curve" smooth="yes"/>
      <point x="565" y="593"/>
      <point x="624" y="581"/>
      <point x="662" y="564" type="curve"/>
      <point x="662" y="580" type="line"/>
      <point x="622" y="597"/>
      <point x="563" y="608"/>
      <point x="516" y="608" type="curve" smooth="yes"/>
      <point x="362" y="608"/>
      <point x="260.0" y="504"/>
      <point x="260.0" y="349" type="curve" smooth="yes"/>
      <point x="260.0" y="195"/>
      <point x="362" y="92"/>
    </contour>
    <contour>
      <point x="980" y="350" type="curve" smooth="yes"/>
      <point x="980" y="638"/>
      <point x="759" y="830"/>
      <point x="500" y="830" type="curve" smooth="yes"/>
      <point x="241" y="830"/>
      <point x="20" y="638"/>
      <point x="20" y="350" type="curve" smooth="yes"/>
      <point x="20" y="62"/>
      <point x="241" y="-130"/>
      <point x="500" y="-130" type="curve" smooth="yes"/>
      <point x="759" y="-130"/>
      <point x="980" y="62"/>
    </contour>
    <contour>
      <point x="964" y="350" type="curve" smooth="yes"/>
      <point x="964" y="99"/>
      <point x="778" y="-114"/>
      <point x="500" y="-114" type="curve" smooth="yes"/>
      <point x="222" y="-114"/>
      <point x="36" y="99"/>
      <point x="36" y="350" type="curve" smooth="yes"/>
      <point x="36" y="601"/>
      <point x="222" y="814"/>
      <point x="500" y="814" type="curve" smooth="yes"/>
      <point x="778" y="814"/>
      <point x="964" y="601"/>
    </contour>
  </outline>
</glyph>
<glyph name="uni24B9" format="2">
  <advance height="1000" width="1000"/>
  <unicode hex="24B9"/>
  <outline>
    <contour>
      <point x="334" y="100" type="line"/>
      <point x="473" y="100" type="line" smooth="yes"/>
      <point x="644" y="100"/>
      <point x="758" y="198"/>
      <point x="758" y="357" type="curve" smooth="yes"/>
      <point x="758" y="507"/>
      <point x="647" y="600"/>
      <point x="479" y="600" type="curve" smooth="yes"/>
      <point x="334" y="600" type="line"/>
    </contour>
    <contour>
      <point x="350" y="115" type="line"/>
      <point x="350" y="585" type="line"/>
      <point x="478" y="585" type="line" smooth="yes"/>
      <point x="636" y="585"/>
      <point x="742" y="499"/>
      <point x="742" y="357" type="curve" smooth="yes"/>
      <point x="742" y="207"/>
      <point x="634" y="115"/>
      <point x="472" y="115" type="curve" smooth="yes"/>
    </contour>
    <contour>
      <point x="980" y="350" type="curve" smooth="yes"/>
      <point x="980" y="638"/>
      <point x="759" y="830"/>
      <point x="500" y="830" type="curve" smooth="yes"/>
      <point x="241" y="830"/>
      <point x="20" y="638"/>
      <point x="20" y="350" type="curve" smooth="yes"/>
      <point x="20" y="62"/>
      <point x="241" y="-130"/>
      <point x="500" y="-130" type="curve" smooth="yes"/>
      <point x="759" y="-130"/>
      <point x="980" y="62"/>
    </contour>
    <contour>
      <point x="964" y="350" type="curve" smooth="yes"/>
      <point x="964" y="99"/>
      <point x="778" y="-114"/>
      <point x="500" y="-114" type="curve" smooth="yes"/>
      <point x="222" y="-114"/>
      <point x="36" y="99"/>
      <point x="36" y="350" type="curve" smooth="yes"/>
      <point x="36" y="601"/>
      <point x="222" y="814"/>
      <point x="500" y="814" type="curve" smooth="yes"/>
      <point x="778" y="814"/>
      <point x="964" y="601"/>
    </contour>
  </outline>
</glyph>
<glyph name="uni24BB" format="2">
  <advance height="1000" width="1000"/>
  <unicode hex="24BB"/>
  <outline>
    <contour>
      <point x="368" y="100.0" type="line"/>
      <point x="384" y="100.0" type="line"/>
      <point x="384" y="348" type="line"/>
      <point x="642" y="348" type="line"/>
      <point x="642" y="363" type="line"/>
      <point x="384" y="363" type="line"/>
      <point x="384" y="585" type="line"/>
      <point x="667" y="585" type="line"/>
      <point x="667" y="600" type="line"/>
      <point x="368" y="600" type="line"/>
    </contour>
    <contour>
      <point x="980" y="350" type="curve" smooth="yes"/>
      <point x="980" y="638"/>
      <point x="759" y="830"/>
      <point x="500" y="830" type="curve" smooth="yes"/>
      <point x="241" y="830"/>
      <point x="20" y="638"/>
      <point x="20" y="350" type="curve" smooth="yes"/>
      <point x="20" y="62"/>
      <point x="241" y="-130"/>
      <point x="500" y="-130" type="curve" smooth="yes"/>
      <point x="759" y="-130"/>
      <point x="980" y="62"/>
    </contour>
    <contour>
      <point x="964" y="350" type="curve" smooth="yes"/>
      <point x="964" y="99"/>
      <point x="778" y="-114"/>
      <point x="500" y="-114" type="curve" smooth="yes"/>
      <point x="222" y="-114"/>
      <point x="36" y="99"/>
      <point x="36" y="350" type="curve" smooth="yes"/>
      <point x="36" y="601"/>
      <point x="222" y="814"/>
      <point x="500" y="814" type="curve" smooth="yes"/>
      <point x="778" y="814"/>
      <point x="964" y="601"/>
    </contour>
  </outline>
</glyph>
<glyph name="uni2776" format="2">
  <advance height="1000" width="1000"/>
  <unicode hex="2776"/>
  <guideline x="0" y="96" angle="0" name="circledNosBaseline" identifier="RFY08Czv10"/>
  <outline>
    <contour>
      <point x="356" y="96" type="line"/>
      <point x="356" y="112" type="line"/>
      <point x="508" y="112" type="line"/>
      <point x="508" y="618" type="line"/>
      <point x="335" y="576" type="line"/>
      <point x="335" y="592" type="line"/>
      <point x="524" y="637" type="line"/>
      <point x="524" y="112" type="line"/>
      <point x="676" y="112" type="line"/>
      <point x="676" y="96" type="line"/>
    </contour>
    <contour>
      <point x="988" y="360" type="curve" smooth="yes"/>
      <point x="988" y="653"/>
      <point x="764" y="848"/>
      <point x="500" y="848" type="curve" smooth="yes"/>
      <point x="236" y="848"/>
      <point x="12" y="653"/>
      <point x="12" y="360" type="curve" smooth="yes"/>
      <point x="12" y="67"/>
      <point x="236" y="-128"/>
      <point x="500" y="-128" type="curve" smooth="yes"/>
      <point x="764" y="-128"/>
      <point x="988" y="67"/>
    </contour>
  </outline>
</glyph>
<glyph name="uni2778" format="2">
  <advance height="1000" width="1000"/>
  <unicode hex="2778"/>
  <guideline x="0" y="96" angle="0" name="circledNosBaseline" identifier="OUY7LFcG7v"/>
  <outline>
    <contour>
      <point x="513.0" y="88" type="curve" smooth="yes"/>
      <point x="457.0" y="88"/>
      <point x="396.0" y="110"/>
      <point x="355.0" y="145" type="curve"/>
      <point x="355.0" y="164" type="line"/>
      <point x="401.0" y="124"/>
      <point x="460.0" y="103"/>
      <point x="513.0" y="103" type="curve" smooth="yes"/>
      <point x="600.0" y="103"/>
      <point x="657.0" y="151"/>
      <point x="657.0" y="232" type="curve" smooth="yes"/>
      <point x="657.0" y="313"/>
      <point x="590.0" y="366"/>
      <point x="490.0" y="366" type="curve" smooth="yes"/>
      <point x="467.0" y="366" type="line"/>
      <point x="467.0" y="381" type="line"/>
      <point x="490.0" y="381" type="line" smooth="yes"/>
      <point x="587.0" y="381"/>
      <point x="650.0" y="428"/>
      <point x="650.0" y="507" type="curve" smooth="yes"/>
      <point x="650.0" y="581"/>
      <point x="596.0" y="622"/>
      <point x="519.0" y="622" type="curve" smooth="yes"/>
      <point x="470.0" y="622"/>
      <point x="420.0" y="607"/>
      <point x="379.0" y="573" type="curve"/>
      <point x="379.0" y="591" type="line"/>
      <point x="414.0" y="620"/>
      <point x="470.0" y="637"/>
      <point x="519.0" y="637" type="curve" smooth="yes"/>
      <point x="605.0" y="637"/>
      <point x="666.0" y="589"/>
      <point x="666.0" y="507" type="curve" smooth="yes"/>
      <point x="666.0" y="437"/>
      <point x="614.0" y="383"/>
      <point x="543.0" y="374" type="curve"/>
      <point x="620.0" y="361"/>
      <point x="673.0" y="305"/>
      <point x="673.0" y="232" type="curve" smooth="yes"/>
      <point x="673.0" y="143"/>
      <point x="607.0" y="88"/>
    </contour>
    <contour>
      <point x="988" y="360" type="curve" smooth="yes"/>
      <point x="988" y="653"/>
      <point x="764" y="848"/>
      <point x="500" y="848" type="curve" smooth="yes"/>
      <point x="236" y="848"/>
      <point x="12" y="653"/>
      <point x="12" y="360" type="curve" smooth="yes"/>
      <point x="12" y="67"/>
      <point x="236" y="-128"/>
      <point x="500" y="-128" type="curve" smooth="yes"/>
      <point x="764" y="-128"/>
      <point x="988" y="67"/>
    </contour>
  </outline>
</glyph>
<glyph name="uni277A" format="2">
  <advance height="1000" width="1000"/>
  <unicode hex="277A"/>
  <guideline x="0" y="96" angle="0" name="circledNosBaseline" identifier="nbdu6apoTo"/>
  <outline>
    <contour>
      <point x="500" y="88" type="curve" smooth="yes"/>
      <point x="443" y="88"/>
      <point x="395" y="110"/>
      <point x="358" y="143" type="curve"/>
      <point x="358" y="164" type="line"/>
      <point x="398" y="126"/>
      <point x="450" y="103"/>
      <point x="500" y="103" type="curve" smooth="yes"/>
      <point x="594" y="103"/>
      <point x="649" y="159"/>
      <point x="649" y="251" type="curve" smooth="yes"/>
      <point x="649" y="339"/>
      <point x="589" y="395"/>
      <point x="480" y="395" type="curve" smooth="yes"/>
      <point x="443" y="395"/>
      <point x="416" y="393"/>
      <point x="376" y="386" type="curve"/>
      <point x="398" y="629" type="line"/>
      <point x="643" y="629" type="line"/>
      <point x="644" y="613" type="line"/>
      <point x="412" y="613" type="line"/>
      <point x="394" y="403" type="line"/>
      <point x="416" y="407"/>
      <point x="450" y="410"/>
      <point x="480" y="410" type="curve" smooth="yes"/>
      <point x="602" y="410"/>
      <point x="665" y="346"/>
      <point x="665" y="251" type="curve" smooth="yes"/>
      <point x="665" y="154"/>
      <point x="601" y="88"/>
    </contour>
    <contour>
      <point x="988" y="360" type="curve" smooth="yes"/>
      <point x="988" y="653"/>
      <point x="764" y="848"/>
      <point x="500" y="848" type="curve" smooth="yes"/>
      <point x="236" y="848"/>
      <point x="12" y="653"/>
      <point x="12" y="360" type="curve" smooth="yes"/>
      <point x="12" y="67"/>
      <point x="236" y="-128"/>
      <point x="500" y="-128" type="curve" smooth="yes"/>
      <point x="764" y="-128"/>
      <point x="988" y="67"/>
    </contour>
  </outline>
</glyph>
<glyph name="uni277B" format="2">
  <advance height="1000" width="1000"/>
  <unicode hex="277B"/>
  <guideline x="0" y="96" angle="0" name="circledNosBaseline" identifier="w0gpyJZZq6"/>
  <outline>
    <contour>
      <point x="505.0" y="88" type="curve" smooth="yes"/>
      <point x="395.0" y="88"/>
      <point x="330.0" y="172"/>
      <point x="330.0" y="309" type="curve" smooth="yes"/>
      <point x="330.0" y="527"/>
      <point x="403.0" y="637"/>
      <point x="542.0" y="637" type="curve" smooth="yes"/>
      <point x="578.0" y="637"/>
      <point x="617.0" y="629"/>
      <point x="647.0" y="615" type="curve"/>
      <point x="647.0" y="598" type="line"/>
      <point x="613.0" y="615"/>
      <point x="577.0" y="623"/>
      <point x="542.0" y="623" type="curve" smooth="yes"/>
      <point x="419.0" y="623"/>
      <point x="358.0" y="530"/>
      <point x="347.0" y="358" type="curve"/>
      <point x="368.0" y="401"/>
      <point x="419.0" y="441"/>
      <point x="501.0" y="441" type="curve" smooth="yes"/>
      <point x="599.0" y="441"/>
      <point x="668.0" y="374"/>
      <point x="668.0" y="273" type="curve" smooth="yes"/>
      <point x="668.0" y="167"/>
      <point x="600.0" y="88"/>
    </contour>
    <contour>
      <point x="505.0" y="103" type="curve" smooth="yes"/>
      <point x="594.0" y="103"/>
      <point x="652.0" y="174"/>
      <point x="652.0" y="273" type="curve" smooth="yes"/>
      <point x="652.0" y="367"/>
      <point x="592.0" y="426"/>
      <point x="501.0" y="426" type="curve" smooth="yes"/>
      <point x="413.0" y="426"/>
      <point x="345.0" y="370"/>
      <point x="345.0" y="309" type="curve" smooth="yes"/>
      <point x="345.0" y="179"/>
      <point x="402.0" y="103"/>
    </contour>
    <contour>
      <point x="988" y="360" type="curve" smooth="yes"/>
      <point x="988" y="653"/>
      <point x="764" y="848"/>
      <point x="500" y="848" type="curve" smooth="yes"/>
      <point x="236" y="848"/>
      <point x="12" y="653"/>
      <point x="12" y="360" type="curve" smooth="yes"/>
      <point x="12" y="67"/>
      <point x="236" y="-128"/>
      <point x="500" y="-128" type="curve" smooth="yes"/>
      <point x="764" y="-128"/>
      <point x="988" y="67"/>
    </contour>
  </outline>
</glyph>
<glyph name="one.tab" format="2">
  <advance width="630"/>
  <outline>
    <contour>
      <point x="339.5" y="0" type="line"/>
      <point x="355.5" y="0" type="line"/>
      <point x="355.5" y="744" type="line"/>
      <point x="182.5" y="707" type="line"/>
      <point x="182.5" y="691" type="line"/>
      <point x="339.5" y="725" type="line"/>
    </contour>
  </outline>
</glyph>
<glyph name="six.tab" format="2">
  <advance width="630"/>
  <outline>
    <contour>
      <point x="326.5" y="-8" type="curve" smooth="yes"/>
      <point x="455.5" y="-8"/>
      <point x="543.5" y="89"/>
      <point x="543.5" y="235" type="curve" smooth="yes"/>
      <point x="543.5" y="375"/>
      <point x="454.5" y="470"/>
      <point x="321.5" y="470" type="curve" smooth="yes"/>
      <point x="225.5" y="470"/>
      <point x="142.5" y="422"/>
      <point x="109.5" y="359" type="curve"/>
      <point x="122.5" y="606"/>
      <point x="211.5" y="733"/>
      <point x="377.5" y="733" type="curve" smooth="yes"/>
      <point x="423.5" y="733"/>
      <point x="472.5" y="721"/>
      <point x="519.5" y="697" type="curve"/>
      <point x="519.5" y="713" type="line"/>
      <point x="478.5" y="733"/>
      <point x="424.5" y="748"/>
      <point x="377.5" y="748" type="curve" smooth="yes"/>
      <point x="189.5" y="748"/>
      <point x="90.5" y="597"/>
      <point x="90.5" y="296" type="curve" smooth="yes"/>
      <point x="90.5" y="109"/>
      <point x="177.5" y="-8"/>
    </contour>
    <contour>
      <point x="326.5" y="7" type="curve" smooth="yes"/>
      <point x="187.5" y="7"/>
      <point x="106.5" y="117"/>
      <point x="106.5" y="296" type="curve" smooth="yes"/>
      <point x="106.5" y="381"/>
      <point x="206.5" y="455"/>
      <point x="321.5" y="455" type="curve" smooth="yes"/>
      <point x="443.5" y="455"/>
      <point x="526.5" y="366"/>
      <point x="526.5" y="235" type="curve" smooth="yes"/>
      <point x="526.5" y="99"/>
      <point x="446.5" y="7"/>
    </contour>
  </outline>
</glyph>
<glyph name="three.tab" format="2">
  <advance width="630"/>
  <outline>
    <contour>
      <point x="305.0" y="-8" type="curve" smooth="yes"/>
      <point x="433.0" y="-8"/>
      <point x="519.0" y="71"/>
      <point x="519.0" y="189" type="curve" smooth="yes"/>
      <point x="519.0" y="289"/>
      <point x="452.0" y="361"/>
      <point x="345.0" y="383" type="curve"/>
      <point x="449.0" y="404"/>
      <point x="512.0" y="473"/>
      <point x="512.0" y="568" type="curve" smooth="yes"/>
      <point x="512.0" y="677"/>
      <point x="435.0" y="748"/>
      <point x="319.0" y="748" type="curve" smooth="yes"/>
      <point x="250.0" y="748"/>
      <point x="175.0" y="721"/>
      <point x="127.0" y="682" type="curve"/>
      <point x="127.0" y="662" type="line"/>
      <point x="183.0" y="707"/>
      <point x="253.0" y="733"/>
      <point x="319.0" y="733" type="curve" smooth="yes"/>
      <point x="424.0" y="733"/>
      <point x="496.0" y="669"/>
      <point x="496.0" y="568" type="curve" smooth="yes"/>
      <point x="496.0" y="461"/>
      <point x="406.0" y="391"/>
      <point x="274.0" y="391" type="curve" smooth="yes"/>
      <point x="242.0" y="391" type="line"/>
      <point x="242.0" y="376" type="line"/>
      <point x="274.0" y="376" type="line" smooth="yes"/>
      <point x="411.0" y="376"/>
      <point x="503.0" y="300"/>
      <point x="503.0" y="189" type="curve" smooth="yes"/>
      <point x="503.0" y="79"/>
      <point x="423.0" y="7"/>
      <point x="305.0" y="7" type="curve" smooth="yes"/>
      <point x="241.0" y="7"/>
      <point x="166.0" y="32"/>
      <point x="107.0" y="77" type="curve"/>
      <point x="107.0" y="55" type="line"/>
      <point x="162.0" y="16"/>
      <point x="237.0" y="-8"/>
    </contour>
  </outline>
</glyph>
<glyph name="zero.tab" format="2">
  <advance width="630"/>
  <outline>
    <contour>
      <point x="315.0" y="-8" type="curve" smooth="yes"/>
      <point x="476.0" y="-8"/>
      <point x="560.0" y="142"/>
      <point x="560.0" y="369" type="curve" smooth="yes"/>
      <point x="560.0" y="598"/>
      <point x="476.0" y="749"/>
      <point x="315.0" y="749" type="curve" smooth="yes"/>
      <point x="154.0" y="749"/>
      <point x="70.0" y="598"/>
      <point x="70.0" y="369" type="curve" smooth="yes"/>
      <point x="70.0" y="142"/>
      <point x="154.0" y="-8"/>
    </contour>
    <contour>
      <point x="315.0" y="7" type="curve" smooth="yes"/>
      <point x="177.0" y="7"/>
      <point x="86.0" y="133"/>
      <point x="86.0" y="369" type="curve" smooth="yes"/>
      <point x="86.0" y="608"/>
      <point x="177.0" y="734"/>
      <point x="315.0" y="734" type="curve" smooth="yes"/>
      <point x="453.0" y="734"/>
      <point x="544.0" y="608"/>
      <point x="544.0" y="369" type="curve" smooth="yes"/>
      <point x="544.0" y="133"/>
      <point x="453.0" y="7"/>
    </contour>
  </outline>
</glyph>
